<svg xmlns="http://www.w3.org/2000/svg" width="100%" height="100%" viewBox="0 0 1920 1142" fill="none">
  <path
    d="M50.4839 1080.99L0 0H1920L1869.52 1080.99C1868.51 1102.44 1868.01 1113.16 1863.52 1121.31C1859.56 1128.49 1853.5 1134.27 1846.15 1137.89C1837.8 1142 1827.06 1142 1805.59 1142H114.414C92.939 1142 82.2014 1142 73.85 1137.89C66.4993 1134.27 60.4364 1128.49 56.4807 1121.31C51.9866 1113.16 51.4857 1102.44 50.4839 1080.99Z"
    fill="#FFFBF5" />
  <path
    d="M50.4839 1080.99L0 0H1920L1869.52 1080.99C1868.51 1102.44 1868.01 1113.16 1863.52 1121.31C1859.56 1128.49 1853.5 1134.27 1846.15 1137.89C1837.8 1142 1827.06 1142 1805.59 1142H114.414C92.939 1142 82.2014 1142 73.85 1137.89C66.4993 1134.27 60.4364 1128.49 56.4807 1121.31C51.9866 1113.16 51.4857 1102.44 50.4839 1080.99Z"
    fill="url(#paint0_linear_2378_372)" />
  <defs>
    <linearGradient id="paint0_linear_2378_372" x1="960" y1="398.899" x2="960" y2="733.532"
      gradientUnits="userSpaceOnUse">
      <stop stop-color="#FCF6EC" />
      <stop offset="1" stop-color="#DACEBC" />
    </linearGradient>
  </defs>
</svg>