<svg width="24" height="24" viewBox="0 0 24 24" fill="none" xmlns="http://www.w3.org/2000/svg">
<g id="Facebook-f_Logo-Black-Logo.wine 1" clip-path="url(#clip0_982_144)">
<path id="Vector" d="M23.9857 11.9997C23.9857 5.38052 18.6198 0.0146484 12.0007 0.0146484C5.3815 0.0146484 0.015625 5.38052 0.015625 11.9997C0.015625 17.9817 4.39837 22.94 10.128 23.8391V15.4641H7.08492V11.9997H10.128V9.35923C10.128 6.35547 11.9173 4.6963 14.6549 4.6963C15.9662 4.6963 17.3377 4.93038 17.3377 4.93038V7.87982H15.8264C14.3376 7.87982 13.8733 8.80368 13.8733 9.75148V11.9997H17.1973L16.6659 15.4641H13.8733V23.8391C19.6029 22.94 23.9857 17.9817 23.9857 11.9997Z" fill="#DACEBC"/>
</g>
<defs>
<clipPath id="clip0_982_144">
<rect width="24" height="24" fill="white"/>
</clipPath>
</defs>
</svg>
