<!-- <svg width="24" height="24" viewBox="0 0 24 24" fill="none" xmlns="http://www.w3.org/2000/svg">
<g id="linkedin (4) 1">
<path id="Vector" d="M3.46687 1.21875C1.817 1.21875 0.738281 2.30214 0.738281 3.7261C0.738281 5.11862 1.78487 6.23291 3.40356 6.23291H3.43488C5.11702 6.23291 6.16388 5.11862 6.16388 3.7261C6.13243 2.30214 5.11702 1.21875 3.46687 1.21875Z" fill="#DACEBC"/>
<path id="Vector_2" d="M1.02344 8.21387H5.84671V22.7249H1.02344V8.21387Z" fill="#DACEBC"/>
<path id="Vector_3" d="M17.6858 7.87305C15.0838 7.87305 13.339 10.3181 13.339 10.3181V8.21362H8.51562V22.7246H13.3388V14.6211C13.3388 14.1873 13.3702 13.7542 13.4977 13.4439C13.8463 12.5777 14.6398 11.6802 15.9723 11.6802C17.7176 11.6802 18.4157 13.0109 18.4157 14.9617V22.7246H23.2385V14.4043C23.2385 9.94713 20.8589 7.87305 17.6858 7.87305Z" fill="#DACEBC"/>
</g>
</svg> -->

<svg xmlns="http://www.w3.org/2000/svg" width="100%" height="100%" viewBox="0 0 18 18" fill="none">
  <path
    d="M3.38592 1.49976C2.24558 1.49976 1.5 2.31 1.5 3.37496C1.5 4.4164 2.22337 5.24976 3.34216 5.24976H3.3638C4.52644 5.24976 5.25 4.4164 5.25 3.37496C5.22826 2.31 4.52644 1.49976 3.38592 1.49976Z"
    fill="#171715" />
  <path d="M1.5 5.99976H4.5V16.4998H1.5V5.99976Z" fill="#171715" />
  <path
    d="M12.8228 5.99976C11.0997 5.99976 9.94422 7.72836 9.94422 7.72836V6.24054H6.75V16.4998H9.94404V10.7706C9.94404 10.4639 9.96487 10.1577 10.0493 9.93835C10.2802 9.3259 10.8056 8.69141 11.6881 8.69141C12.8439 8.69141 13.3061 9.63222 13.3061 11.0114V16.4998H16.5V10.6173C16.5 7.46612 14.9241 5.99976 12.8228 5.99976Z"
    fill="#171715" />
</svg>