<svg width="24" height="24" viewBox="0 0 24 24" fill="none" xmlns="http://www.w3.org/2000/svg">
<g id="Instagram-Glyph-Black-Logo.wine 1" clip-path="url(#clip0_982_140)">
<g id="Group">
<path id="Vector" d="M12.0007 0.0146484C8.74572 0.0146484 8.33757 0.028457 7.05922 0.0867596C5.78356 0.144955 4.91234 0.347587 4.14998 0.643811C3.36186 0.950096 2.69348 1.35993 2.02721 2.0262C1.3609 2.69247 0.951073 3.36092 0.644823 4.14904C0.348528 4.91136 0.145968 5.78258 0.0877005 7.05825C0.0293979 8.33659 0.015625 8.74474 0.015625 11.9997C0.015625 15.2546 0.0293979 15.6627 0.0877005 16.9411C0.145968 18.2168 0.348528 19.088 0.644823 19.8503C0.951108 20.6384 1.36094 21.3068 2.02721 21.9731C2.69352 22.6394 3.36186 23.0492 4.14998 23.3555C4.91234 23.6517 5.78356 23.8543 7.05922 23.9126C8.33757 23.9709 8.74572 23.9847 12.0007 23.9847C15.2556 23.9847 15.6637 23.9709 16.9421 23.9126C18.2177 23.8544 19.089 23.6517 19.8513 23.3555C20.6394 23.0492 21.3078 22.6394 21.9741 21.9731C22.6404 21.3068 23.0502 20.6384 23.3565 19.8503C23.6527 19.088 23.8554 18.2168 23.9136 16.9411C23.9719 15.6627 23.9857 15.2546 23.9857 11.9997C23.9857 8.74474 23.9719 8.33659 23.9136 7.05825C23.8554 5.78258 23.6527 4.91136 23.3565 4.14904C23.0502 3.36092 22.6404 2.69247 21.9741 2.0262C21.3078 1.35993 20.6394 0.950096 19.8513 0.643811C19.089 0.347587 18.2177 0.144955 16.9421 0.0867596C15.6637 0.028457 15.2556 0.0146484 12.0007 0.0146484ZM12.0007 2.1741C15.2008 2.1741 15.5798 2.18633 16.8436 2.24399C18.0122 2.29727 18.6468 2.49251 19.069 2.65664C19.6285 2.87408 20.0278 3.13377 20.4471 3.55316C20.8665 3.97256 21.1262 4.37183 21.3437 4.93123C21.5078 5.35355 21.703 5.98818 21.7563 7.15669C21.814 8.42048 21.8262 8.79955 21.8262 11.9997C21.8262 15.1998 21.814 15.5789 21.7563 16.8426C21.703 18.0112 21.5078 18.6458 21.3437 19.0681C21.1262 19.6275 20.8665 20.0268 20.4471 20.4461C20.0278 20.8656 19.6285 21.1252 19.0691 21.3427C18.6468 21.5068 18.0121 21.7021 16.8436 21.7553C15.5801 21.813 15.201 21.8252 12.0006 21.8252C8.80028 21.8252 8.42131 21.813 7.15767 21.7553C5.98912 21.7021 5.35453 21.5068 4.93225 21.3427C4.37277 21.1252 3.97354 20.8656 3.55418 20.4461C3.13478 20.0268 2.87506 19.6275 2.65762 19.0681C2.49349 18.6458 2.29828 18.0112 2.24497 16.8426C2.18731 15.5789 2.17507 15.1998 2.17507 11.9997C2.17507 8.79955 2.18731 8.42048 2.24497 7.15669C2.29828 5.98814 2.49349 5.35355 2.65762 4.93127C2.87506 4.37179 3.13478 3.97256 3.55414 3.5532C3.97354 3.13377 4.37281 2.87408 4.93221 2.65664C5.35453 2.49251 5.98915 2.29727 7.15767 2.24399C8.42145 2.18633 8.80056 2.1741 12.0007 2.1741Z" fill="#DACEBC"/>
<path id="Vector_2" d="M12.0002 15.9949C9.79376 15.9949 8.00515 14.2063 8.00515 12C8.00515 9.79352 9.79376 8.0049 12.0002 8.0049C14.2066 8.0049 15.9952 9.79352 15.9952 12C15.9952 14.2063 14.2066 15.9949 12.0002 15.9949ZM12.0002 5.84546C8.60113 5.84546 5.8457 8.60088 5.8457 12C5.8457 15.399 8.60113 18.1544 12.0002 18.1544C15.3992 18.1544 18.1546 15.399 18.1546 12C18.1546 8.60088 15.3992 5.84546 12.0002 5.84546ZM19.836 5.60229C19.836 6.39662 19.1921 7.04048 18.3978 7.04048C17.6035 7.04048 16.9596 6.39662 16.9596 5.60229C16.9596 4.808 17.6035 4.16406 18.3978 4.16406C19.1921 4.16406 19.836 4.808 19.836 5.60229Z" fill="#DACEBC"/>
</g>
</g>
<defs>
<clipPath id="clip0_982_140">
<rect width="24" height="24" fill="white"/>
</clipPath>
</defs>
</svg>
