<!-- <svg width="24" height="18" viewBox="0 0 24 18" fill="none" xmlns="http://www.w3.org/2000/svg">
<g id="YouTube-Icon-Almost-Black-Logo.wine 1" clip-path="url(#clip0_982_137)">
<path id="Vector" d="M23.4828 3.162C23.2072 2.11842 22.3951 1.29656 21.3638 1.01764C19.4947 0.510742 11.9996 0.510742 11.9996 0.510742C11.9996 0.510742 4.50463 0.510742 2.63553 1.01764C1.60426 1.29656 0.792067 2.11842 0.516503 3.162C0.015625 5.05364 0.015625 9.00018 0.015625 9.00018C0.015625 9.00018 0.015625 12.9467 0.516503 14.8384C0.792067 15.8819 1.60426 16.7037 2.63553 16.9827C4.50463 17.4895 11.9996 17.4895 11.9996 17.4895C11.9996 17.4895 19.4947 17.4895 21.3638 16.9827C22.3951 16.7037 23.2072 15.8818 23.4828 14.8385C23.9837 12.9466 23.9837 9.00018 23.9837 9.00018C23.9837 9.00018 23.9837 5.05364 23.4828 3.162Z" fill="#DACEBC"/>
<path id="Vector_2" d="M9.54883 12.5833L15.8133 9.00031L9.54883 5.41699V12.5833Z" fill="#2A2C26"/>
</g>
<defs>
<clipPath id="clip0_982_137">
<rect width="24" height="17" fill="white" transform="translate(0 0.5)"/>
</clipPath>
</defs>
</svg> -->

<svg xmlns="http://www.w3.org/2000/svg" width="100%" height="100%" viewBox="0 0 18 14" fill="none">
  <g clip-path="url(#clip0_2127_1687)">
    <path
      d="M17.6111 2.62126C17.4044 1.83857 16.7953 1.22218 16.0219 1.01299C14.6201 0.632812 8.99873 0.632812 8.99873 0.632812C8.99873 0.632812 3.3775 0.632812 1.97567 1.01299C1.20222 1.22218 0.593074 1.83857 0.3864 2.62126C0.0107422 4.03998 0.0107422 6.99989 0.0107422 6.99989C0.0107422 6.99989 0.0107422 9.9598 0.3864 11.3785C0.593074 12.1612 1.20222 12.7775 1.97567 12.9868C3.3775 13.3669 8.99873 13.3669 8.99873 13.3669C8.99873 13.3669 14.6201 13.3669 16.0219 12.9868C16.7953 12.7775 17.4044 12.1611 17.6111 11.3786C17.9868 9.95973 17.9868 6.99989 17.9868 6.99989C17.9868 6.99989 17.9868 4.03998 17.6111 2.62126Z"
      fill="#171715" />
    <path d="M7.16113 9.68749L11.8595 7.00023L7.16113 4.31274V9.68749Z" fill="#FFFBF5" />
  </g>
  <defs>
    <clipPath id="clip0_2127_1687">
      <rect width="18" height="12.75" fill="white" transform="translate(0 0.624756)" />
    </clipPath>
  </defs>
</svg>