<!-- <svg width="24" height="24" viewBox="0 0 24 24" fill="none" xmlns="http://www.w3.org/2000/svg">
<g id="tik-tok 1">
<g id="Group">
<path id="Vector" d="M22.5147 6.01855C21.145 6.01855 19.8813 5.5648 18.8664 4.79934C17.7025 3.92184 16.8663 2.63465 16.571 1.15105C16.4978 0.784492 16.4585 0.406211 16.4547 0.0185547H12.5421V10.7098L12.5374 16.5659C12.5374 18.1315 11.5178 19.459 10.1046 19.9259C9.6944 20.0614 9.25144 20.1256 8.79019 20.1003C8.20144 20.0679 7.64972 19.8903 7.17019 19.6034C6.14972 18.9931 5.45784 17.8859 5.43909 16.6193C5.40956 14.6398 7.00987 13.0259 8.988 13.0259C9.37847 13.0259 9.75347 13.0896 10.1046 13.2054V10.2832V9.23277C9.73425 9.17793 9.35737 9.14934 8.97628 9.14934C6.81112 9.14934 4.78612 10.0493 3.33862 11.6707C2.24456 12.8961 1.58831 14.4593 1.48706 16.0986C1.3544 18.252 2.14237 20.299 3.6705 21.8093C3.89503 22.0311 4.13081 22.2368 4.37737 22.4267C5.68753 23.435 7.28925 23.9815 8.97628 23.9815C9.35737 23.9815 9.73425 23.9534 10.1046 23.8986C11.6805 23.6651 13.1346 22.9437 14.2821 21.8093C15.6921 20.4157 16.4711 18.5656 16.4796 16.5964L16.4594 7.85137C17.1321 8.37027 17.8675 8.79965 18.6569 9.13293C19.8846 9.6509 21.1863 9.9134 22.526 9.91293V7.07184V6.01762C22.5269 6.01855 22.5157 6.01855 22.5147 6.01855Z" fill="#DACEBC"/>
</g>
</g>
</svg> -->

<svg xmlns="http://www.w3.org/2000/svg" width="100%" height="100%" viewBox="0 0 18 18" fill="none">
  <path
    d="M15.7428 5.1643C14.8644 5.1643 14.054 4.87332 13.4032 4.38244C12.6568 3.81973 12.1206 2.99429 11.9312 2.04289C11.8843 1.80783 11.859 1.56524 11.8566 1.31665H9.34755V8.17268L9.34455 11.928C9.34455 12.932 8.69075 13.7833 7.78445 14.0827C7.52142 14.1696 7.23736 14.2108 6.94157 14.1945C6.56402 14.1738 6.21022 14.0599 5.90271 13.8759C5.2483 13.4845 4.80462 12.7745 4.7926 11.9623C4.77366 10.6929 5.7999 9.65793 7.06842 9.65793C7.31882 9.65793 7.5593 9.69881 7.78445 9.77306V7.89914V7.2255C7.54697 7.19033 7.30529 7.17199 7.06091 7.17199C5.67245 7.17199 4.37387 7.74914 3.44562 8.7889C2.74403 9.57467 2.32319 10.5772 2.25826 11.6283C2.17319 13.0093 2.6785 14.322 3.65844 15.2905C3.80243 15.4327 3.95363 15.5647 4.11174 15.6864C4.95192 16.333 5.97906 16.6835 7.06091 16.6835C7.30529 16.6835 7.54697 16.6655 7.78445 16.6303C8.79505 16.4806 9.72751 16.018 10.4634 15.2905C11.3676 14.3969 11.8672 13.2104 11.8726 11.9476L11.8596 6.33964C12.291 6.6724 12.7626 6.94774 13.2688 7.16147C14.0561 7.49363 14.8909 7.66196 15.75 7.66166V5.83974V5.1637C15.7506 5.1643 15.7434 5.1643 15.7428 5.1643Z"
    fill="#171715" />
</svg>