<!-- <svg width="24" height="24" viewBox="0 0 24 24" fill="none" xmlns="http://www.w3.org/2000/svg">
  <g id="Facebook-f_Logo-Black-Logo.wine 1" clip-path="url(#clip0_982_144)">
    <path id="Vector"
      d="M23.9857 11.9997C23.9857 5.38052 18.6198 0.0146484 12.0007 0.0146484C5.3815 0.0146484 0.015625 5.38052 0.015625 11.9997C0.015625 17.9817 4.39837 22.94 10.128 23.8391V15.4641H7.08492V11.9997H10.128V9.35923C10.128 6.35547 11.9173 4.6963 14.6549 4.6963C15.9662 4.6963 17.3377 4.93038 17.3377 4.93038V7.87982H15.8264C14.3376 7.87982 13.8733 8.80368 13.8733 9.75148V11.9997H17.1973L16.6659 15.4641H13.8733V23.8391C19.6029 22.94 23.9857 17.9817 23.9857 11.9997Z"
      fill="#DACEBC" />
  </g>
  <defs>
    <clipPath id="clip0_982_144">
      <rect width="24" height="24" fill="white" />
    </clipPath>
  </defs>
</svg> -->

<svg xmlns="http://www.w3.org/2000/svg" width="100%" height="100%" viewBox="0 0 18 18" fill="none">
  <g clip-path="url(#clip0_2127_1702)">
    <path
      d="M17.25 9.05018C17.25 4.46598 13.5564 0.749756 9.00001 0.749756C4.44365 0.749756 0.75 4.46598 0.75 9.05018C0.75 13.1931 3.7669 16.6271 7.71094 17.2498V11.4495H5.61622V9.05018H7.71094V7.22149C7.71094 5.14119 8.9426 3.99211 10.8271 3.99211C11.7297 3.99211 12.6738 4.15422 12.6738 4.15422V6.19691H11.6335C10.6087 6.19691 10.2891 6.83674 10.2891 7.49316V9.05018H12.5772L12.2114 11.4495H10.2891V17.2498C14.2331 16.6271 17.25 13.1931 17.25 9.05018Z"
      fill="#171715" />
  </g>
  <defs>
    <clipPath id="clip0_2127_1702">
      <rect width="18" height="18" fill="white" />
    </clipPath>
  </defs>
</svg>