<svg width="48" height="48" viewBox="0 0 48 48" fill="none" xmlns="http://www.w3.org/2000/svg">
<g clip-path="url(#clip0_1003_226)">
<circle cx="24" cy="24" r="24" fill="#2A2C26"/>
<g clip-path="url(#clip1_1003_226)">
<path d="M25.6714 26.2536C25.1739 26.5853 24.5959 26.7606 24 26.7606C23.4041 26.7606 22.8262 26.5853 22.3286 26.2536L14.1332 20.7898C14.0877 20.7595 14.0434 20.7279 14 20.6954V29.6484C14 30.6748 14.833 31.4895 15.8411 31.4895H32.1588C33.1853 31.4895 34 30.6565 34 29.6484V20.6953C33.9565 20.7279 33.9121 20.7596 33.8665 20.7899L25.6714 26.2536Z" fill="white"/>
<path d="M14.7832 19.8151L22.9786 25.2789C23.2889 25.4858 23.6444 25.5892 24 25.5892C24.3555 25.5892 24.7111 25.4857 25.0214 25.2789L33.2168 19.8151C33.7072 19.4884 34 18.9415 34 18.3513C34 17.3364 33.1743 16.5107 32.1595 16.5107H15.8405C14.8257 16.5108 14 17.3364 14 18.3522C14 18.9415 14.2928 19.4884 14.7832 19.8151Z" fill="white"/>
</g>
</g>
<defs>
<clipPath id="clip0_1003_226">
<rect width="48" height="48" fill="white"/>
</clipPath>
<clipPath id="clip1_1003_226">
<rect width="20" height="20" fill="white" transform="translate(14 14)"/>
</clipPath>
</defs>
</svg>
