<svg width="24" height="24" viewBox="0 0 24 24" fill="none" xmlns="http://www.w3.org/2000/svg">
<g id="Instagram-Glyph-Black-Logo.wine 1">
<g id="Group">
<path id="Vector" d="M11.9997 2C9.28393 2 8.94339 2.01152 7.87681 2.06017C6.81246 2.10872 6.08556 2.27779 5.44949 2.52494C4.79192 2.78049 4.23426 3.12243 3.67836 3.67833C3.12243 4.23423 2.78049 4.79195 2.52497 5.44952C2.27776 6.08556 2.10875 6.81246 2.06014 7.87681C2.01149 8.94339 2 9.28393 2 11.9997C2 14.7154 2.01149 15.0559 2.06014 16.1225C2.10875 17.1869 2.27776 17.9138 2.52497 18.5498C2.78052 19.2074 3.12246 19.765 3.67836 20.321C4.23429 20.8769 4.79192 21.2188 5.44949 21.4744C6.08556 21.7215 6.81246 21.8906 7.87681 21.9392C8.94339 21.9878 9.28393 21.9993 11.9997 21.9993C14.7154 21.9993 15.0559 21.9878 16.1225 21.9392C17.1869 21.8906 17.9138 21.7215 18.5498 21.4744C19.2074 21.2188 19.765 20.8769 20.321 20.321C20.8769 19.765 21.2188 19.2074 21.4744 18.5498C21.7215 17.9138 21.8906 17.1869 21.9392 16.1225C21.9878 15.0559 21.9993 14.7154 21.9993 11.9997C21.9993 9.28393 21.9878 8.94339 21.9392 7.87681C21.8906 6.81246 21.7215 6.08556 21.4744 5.44952C21.2188 4.79195 20.8769 4.23423 20.321 3.67833C19.765 3.12243 19.2074 2.78049 18.5498 2.52494C17.9138 2.27779 17.1869 2.10872 16.1225 2.06017C15.0559 2.01152 14.7154 2 11.9997 2ZM11.9997 3.80173C14.6697 3.80173 14.986 3.81194 16.0404 3.86005C17.0154 3.9045 17.5448 4.0674 17.8972 4.20434C18.364 4.38576 18.6971 4.60243 19.047 4.95235C19.3969 5.30227 19.6136 5.6354 19.795 6.10214C19.9319 6.4545 20.0948 6.984 20.1393 7.95894C20.1874 9.01338 20.1976 9.32966 20.1976 11.9997C20.1976 14.6697 20.1874 14.986 20.1393 16.0404C20.0948 17.0154 19.9319 17.5448 19.795 17.8972C19.6136 18.364 19.3969 18.6971 19.047 19.047C18.6971 19.3969 18.3639 19.6136 17.8972 19.795C17.5448 19.9319 17.0153 20.0948 16.0404 20.1393C14.9861 20.1874 14.6699 20.1976 11.9997 20.1976C9.32945 20.1976 9.01326 20.1874 7.95894 20.1393C6.98397 20.0948 6.4545 19.9319 6.10217 19.795C5.63537 19.6136 5.30227 19.3969 4.95238 19.047C4.60246 18.6971 4.38576 18.3639 4.20434 17.8972C4.0674 17.5448 3.90453 17.0153 3.86005 16.0404C3.81194 14.986 3.80173 14.6697 3.80173 11.9997C3.80173 9.32966 3.81194 9.01338 3.86005 7.95894C3.90453 6.98397 4.0674 6.4545 4.20434 6.10217C4.38576 5.63537 4.60246 5.30227 4.95235 4.95238C5.30227 4.60243 5.6354 4.38576 6.10214 4.20434C6.4545 4.0674 6.984 3.9045 7.95894 3.86005C9.01338 3.81194 9.32969 3.80173 11.9997 3.80173Z" fill="#2A2C26"/>
<path id="Vector_2" d="M12.0002 15.333C10.1593 15.333 8.66696 13.8406 8.66696 11.9998C8.66696 10.1588 10.1593 8.66651 12.0002 8.66651C13.8411 8.66651 15.3334 10.1588 15.3334 11.9998C15.3334 13.8406 13.8411 15.333 12.0002 15.333ZM12.0002 6.86478C9.16422 6.86478 6.86523 9.16376 6.86523 11.9998C6.86523 14.8357 9.16422 17.1347 12.0002 17.1347C14.8362 17.1347 17.1352 14.8357 17.1352 11.9998C17.1352 9.16376 14.8362 6.86478 12.0002 6.86478ZM18.538 6.6619C18.538 7.32464 18.0008 7.86185 17.338 7.86185C16.6754 7.86185 16.1381 7.32464 16.1381 6.6619C16.1381 5.99918 16.6754 5.46191 17.338 5.46191C18.0008 5.46191 18.538 5.99918 18.538 6.6619Z" fill="#2A2C26"/>
</g>
</g>
</svg>
