<svg width="24" height="24" viewBox="0 0 24 24" fill="none" xmlns="http://www.w3.org/2000/svg">
<g id="tik-tok 1">
<g id="Group">
<path id="Vector" d="M20.9897 6.88606C19.8186 6.88606 18.738 6.49809 17.8703 5.84359C16.8751 5.09329 16.1601 3.99271 15.9076 2.72418C15.8451 2.41076 15.8114 2.08732 15.8082 1.75586H12.4628V10.8972L12.4587 15.9044C12.4587 17.243 11.587 18.3781 10.3786 18.7773C10.0279 18.8931 9.64916 18.948 9.25478 18.9264C8.75138 18.8987 8.27964 18.7468 7.86962 18.5015C6.99709 17.9797 6.40551 17.033 6.38948 15.9501C6.36423 14.2575 7.73255 12.8776 9.42391 12.8776C9.75778 12.8776 10.0784 12.9321 10.3786 13.0311V10.5325V9.63432C10.062 9.58743 9.73974 9.56298 9.41389 9.56298C7.56261 9.56298 5.83117 10.3325 4.59351 11.7189C3.65805 12.7665 3.09694 14.1032 3.01036 15.5048C2.89694 17.346 3.57068 19.0963 4.87727 20.3877C5.06926 20.5773 5.27086 20.7532 5.48168 20.9155C6.6019 21.7777 7.97142 22.245 9.41389 22.245C9.73974 22.245 10.062 22.2209 10.3786 22.174C11.7261 21.9744 12.9694 21.3576 13.9505 20.3877C15.1561 19.1961 15.8222 17.6142 15.8294 15.9304L15.8122 8.45317C16.3874 8.89685 17.0162 9.26398 17.6911 9.54895C18.7408 9.99183 19.8538 10.2163 20.9993 10.2159V7.78665V6.88526C21.0001 6.88606 20.9905 6.88606 20.9897 6.88606Z" fill="#2A2C26"/>
</g>
</g>
</svg>
