<svg width="24" height="24" viewBox="0 0 24 24" fill="none" xmlns="http://www.w3.org/2000/svg">
<g id="linkedin (4) 1">
<path id="Vector" d="M4.51455 2C2.9941 2 2 3.08033 2 4.50027C2 5.88886 2.96449 7 4.45621 7H4.48507C6.03526 7 7 5.88886 7 4.50027C6.97102 3.08033 6.03526 2 4.51455 2Z" fill="#2A2C26"/>
<path id="Vector_2" d="M2 8H6V22H2V8Z" fill="#2A2C26"/>
<path id="Vector_3" d="M17.097 8C14.7996 8 13.259 10.3048 13.259 10.3048V8.32105H9V22H13.2587V14.3611C13.2587 13.9522 13.2865 13.5439 13.399 13.2515C13.7069 12.4349 14.4075 11.5889 15.5841 11.5889C17.1252 11.5889 17.7415 12.8433 17.7415 14.6822V22H22V14.1567C22 9.95515 19.8988 8 17.097 8Z" fill="#2A2C26"/>
</g>
</svg>
