<svg width="24" height="18" viewBox="0 0 24 18" fill="none" xmlns="http://www.w3.org/2000/svg">
<g id="YouTube-Icon-Almost-Black-Logo.wine 1" clip-path="url(#clip0_1003_249)">
<path id="Vector" d="M23.4828 3.162C23.2072 2.11842 22.3951 1.29656 21.3638 1.01764C19.4947 0.510742 11.9996 0.510742 11.9996 0.510742C11.9996 0.510742 4.50463 0.510742 2.63553 1.01764C1.60426 1.29656 0.792067 2.11842 0.516503 3.162C0.015625 5.05364 0.015625 9.00018 0.015625 9.00018C0.015625 9.00018 0.015625 12.9467 0.516503 14.8384C0.792067 15.8819 1.60426 16.7037 2.63553 16.9827C4.50463 17.4895 11.9996 17.4895 11.9996 17.4895C11.9996 17.4895 19.4947 17.4895 21.3638 16.9827C22.3951 16.7037 23.2072 15.8818 23.4828 14.8385C23.9837 12.9466 23.9837 9.00018 23.9837 9.00018C23.9837 9.00018 23.9837 5.05364 23.4828 3.162Z" fill="#2A2C26"/>
<path id="Vector_2" d="M9.54883 12.5833L15.8133 9.00031L9.54883 5.41699V12.5833Z" fill="#DACEBC"/>
</g>
<defs>
<clipPath id="clip0_1003_249">
<rect width="24" height="17" fill="white" transform="translate(0 0.5)"/>
</clipPath>
</defs>
</svg>
