<svg width="49" height="35" viewBox="0 0 49 35" fill="none" xmlns="http://www.w3.org/2000/svg">
<g id="YouTube-Icon-Almost-Black-Logo.wine 1" clip-path="url(#clip0_982_769)">
<path id="Vector" d="M47.5653 5.49491C47.0139 3.41909 45.3898 1.78429 43.3272 1.22948C39.589 0.221191 24.5988 0.221191 24.5988 0.221191C24.5988 0.221191 9.60887 0.221191 5.87067 1.22948C3.80812 1.78429 2.18374 3.41909 1.63261 5.49491C0.630859 9.25762 0.630859 17.1078 0.630859 17.1078C0.630859 17.1078 0.630859 24.9581 1.63261 28.7208C2.18374 30.7966 3.80812 32.4312 5.87067 32.9862C9.60887 33.9943 24.5988 33.9943 24.5988 33.9943C24.5988 33.9943 39.589 33.9943 43.3272 32.9862C45.3898 32.4312 47.0139 30.7964 47.5653 28.721C48.567 24.9578 48.567 17.1078 48.567 17.1078C48.567 17.1078 48.567 9.25762 47.5653 5.49491Z" fill="#DACEBC"/>
<path id="Vector_2" d="M19.6953 24.2353L32.2242 17.1082L19.6953 9.98047V24.2353Z" fill="#2A2C26"/>
</g>
<defs>
<clipPath id="clip0_982_769">
<rect width="48" height="33.8153" fill="white" transform="translate(0.599609 0.200195)"/>
</clipPath>
</defs>
</svg>
