<svg width="40" height="40" viewBox="0 0 40 40" fill="none" xmlns="http://www.w3.org/2000/svg">
  <g id="Facebook-f_Logo-Black-Logo.wine 2" clip-path="url(#clip0_1311_652)">
    <path id="Vector"
      d="M39.9735 20.0004C39.9735 8.96851 31.0304 0.0253906 19.9985 0.0253906C8.96656 0.0253906 0.0234375 8.96851 0.0234375 20.0004C0.0234375 29.9705 7.32801 38.2343 16.8774 39.7328V25.7745H11.8056V20.0004H16.8774V15.5997C16.8774 10.5934 19.8595 7.82815 24.4222 7.82815C26.6077 7.82815 28.8936 8.21828 28.8936 8.21828V13.134H26.3748C23.8934 13.134 23.1196 14.6738 23.1196 16.2534V20.0004H28.6595L27.7739 25.7745H23.1196V39.7328C32.6689 38.2343 39.9735 29.9705 39.9735 20.0004Z" />
  </g>
  <defs>
    <clipPath id="clip0_1311_652">
      <rect width="40" height="40" />
    </clipPath>
  </defs>
</svg>