<svg width="49" height="48" viewBox="0 0 49 48" fill="none" xmlns="http://www.w3.org/2000/svg">
  <g id="linkedin (4) 1">
    <path id="Vector"
      d="M7.33414 2.4375C4.03439 2.4375 1.87695 4.60428 1.87695 7.45221C1.87695 10.2372 3.97012 12.4658 7.20752 12.4658H7.27014C10.6344 12.4658 12.7281 10.2372 12.7281 7.45221C12.6653 4.60428 10.6344 2.4375 7.33414 2.4375Z" />
    <path id="Vector_2" d="M2.44922 16.4287H12.0958V45.4507H2.44922V16.4287Z" />
    <path id="Vector_3"
      d="M35.77 15.7476C30.566 15.7476 27.0765 20.6376 27.0765 20.6376V16.4287H17.4297V45.4507H27.076V29.2437C27.076 28.3761 27.1389 27.5098 27.3937 26.8893C28.0911 25.1568 29.6781 23.3619 32.3431 23.3619C35.8337 23.3619 37.2298 26.0233 37.2298 29.9249V45.4507H46.8755V28.81C46.8755 19.8957 42.1162 15.7476 35.77 15.7476Z" />
  </g>
</svg>