<svg xmlns="http://www.w3.org/2000/svg" width="48" height="34" viewBox="0 0 48 34" fill="none">
  <g clip-path="url(#clip0_0_5)">
    <path fill-rule="evenodd" clip-rule="evenodd"
      d="M42.7276 1.02929C44.7901 1.58409 46.4143 3.21889 46.9657 5.29471C47.9674 9.05743 47.9674 16.9076 47.9674 16.9076C47.9674 16.9076 47.9674 24.7577 46.9657 28.5208C46.4143 30.5962 44.7901 32.231 42.7276 32.786C38.9894 33.7941 23.9992 33.7941 23.9992 33.7941C23.9992 33.7941 9.00926 33.7941 5.27106 32.786C3.20851 32.231 1.58413 30.5964 1.03301 28.5206C0.03125 24.7579 0.03125 16.9076 0.03125 16.9076C0.03125 16.9076 0.03125 9.05743 1.03301 5.29471C1.58413 3.21889 3.20851 1.58409 5.27106 1.02929C9.00926 0.0209961 23.9992 0.0209961 23.9992 0.0209961C23.9992 0.0209961 38.9894 0.0209961 42.7276 1.02929ZM31.6246 16.908L19.0957 24.0351V9.78027L31.6246 16.908Z"
      fill="inherit" />
  </g>
  <defs>
    <clipPath id="clip0_0_5">
      <rect width="48" height="33.8153" fill="white" />
    </clipPath>
  </defs>
</svg>