<svg width="49" height="48" viewBox="0 0 49 48" fill="none" xmlns="http://www.w3.org/2000/svg">
  <g id="instagram (8) 1">
    <g id="Group">
      <g id="Group_2">
        <path id="Vector"
          d="M37.3554 10.3931C36.7772 10.3931 36.3066 10.8636 36.3066 11.4418C36.3066 12.0201 36.7772 12.4906 37.3554 12.4906C37.9337 12.4906 38.4042 12.0202 38.4042 11.4418C38.4042 10.8635 37.9337 10.3931 37.3554 10.3931Z" />
      </g>
    </g>
    <g id="Group_3">
      <g id="Group_4">
        <path id="Vector_2"
          d="M24.7997 14.7026C19.6729 14.7026 15.502 18.8736 15.502 24.0004C15.502 29.1272 19.6729 33.2983 24.7997 33.2983C29.9266 33.2983 34.0976 29.1273 34.0976 24.0005C34.0976 18.8737 29.9266 14.7026 24.7997 14.7026Z" />
      </g>
    </g>
    <g id="Group_5">
      <g id="Group_6">
        <path id="Vector_3"
          d="M34.5566 2.39941H15.0418C8.51181 2.39941 3.19922 7.712 3.19922 14.2421V33.7568C3.19922 40.2869 8.51181 45.5994 15.0418 45.5994H34.5566C41.0867 45.5994 46.3992 40.2868 46.3992 33.7568V14.2421C46.3992 7.712 41.0867 2.39941 34.5566 2.39941ZM24.7992 35.8484C18.2656 35.8484 12.9504 30.533 12.9504 23.9994C12.9504 17.4658 18.2657 12.1506 24.7992 12.1506C31.3327 12.1506 36.6482 17.4659 36.6482 23.9994C36.6482 30.5329 31.3327 35.8484 24.7992 35.8484ZM37.3568 15.0418C35.3718 15.0418 33.7569 13.4269 33.7569 11.4419C33.7569 9.45688 35.3718 7.84185 37.3568 7.84185C39.3418 7.84185 40.9568 9.45679 40.9568 11.4418C40.9568 13.4268 39.3418 15.0418 37.3568 15.0418Z" />
      </g>
    </g>
  </g>
</svg>