<svg width="49" height="48" viewBox="0 0 49 48" fill="none" xmlns="http://www.w3.org/2000/svg">
  <g id="tik-tok 2">
    <g id="Group">
      <path id="Vector"
        d="M42.1786 13.7721C39.8364 13.7721 37.6753 12.9962 35.9398 11.6872C33.9495 10.1866 32.5194 7.98541 32.0144 5.44837C31.8894 4.82152 31.822 4.17464 31.8156 3.51172H25.1247V21.7945L25.1167 31.8088C25.1167 34.4861 23.3732 36.7562 20.9564 37.5546C20.255 37.7862 19.4975 37.8961 18.7088 37.8528C17.702 37.7975 16.7585 37.4937 15.9385 37.0031C14.1934 35.9594 13.0102 34.0661 12.9782 31.9002C12.9277 28.515 15.6643 25.7551 19.047 25.7551C19.7148 25.7551 20.356 25.8641 20.9564 26.0621V21.065V19.2686C20.3232 19.1749 19.6787 19.126 19.027 19.126C15.3244 19.126 11.8616 20.665 9.38624 23.4377C7.51532 25.5331 6.39309 28.2064 6.21994 31.0096C5.99309 34.6921 7.34057 38.1927 9.95377 40.7754C10.3377 41.1545 10.7409 41.5064 11.1626 41.8311C13.403 43.5553 16.1421 44.49 19.027 44.49C19.6787 44.49 20.3232 44.4419 20.9564 44.3481C23.6514 43.9489 26.1379 42.7152 28.1002 40.7754C30.5114 38.3923 31.8437 35.2284 31.8581 31.8609L31.8236 16.9063C32.9739 17.7937 34.2316 18.528 35.5815 19.0979C37.6809 19.9837 39.9069 20.4326 42.1979 20.4318V15.5733V13.7705C42.1995 13.7721 42.1802 13.7721 42.1786 13.7721Z" />
    </g>
  </g>
</svg>