<svg xmlns="http://www.w3.org/2000/svg" width="220" height="32" viewBox="0 0 220 32" fill="none">
  <g clip-path="url(#clip0_1980_394)">
    <path
      d="M5.11391 10.0467H10.6366L7.84213 3.6705L5.11391 10.0467ZM8.60426 0.161141C8.78697 0.192831 8.97382 0.192831 9.15653 0.161141C10.4323 3.6101 13.2874 10.2389 16.9213 18.1528C16.4221 18.0462 15.9132 17.991 15.4026 17.9881C14.8468 17.9989 14.2928 18.054 13.7458 18.1528C13.0508 15.8472 12.1832 13.5965 11.1502 11.4197H4.60034C3.60752 13.5917 2.8038 15.8443 2.198 18.1528C1.85288 18.054 1.49662 17.9987 1.13763 17.9881C0.753238 17.9986 0.371445 18.0539 0 18.1528C3.38538 10.8265 6.46697 3.9561 7.95809 0.161141C8.17342 0.174539 8.38951 0.170856 8.60426 0.150146V0.161141Z"
      fill="#FBF6EC" />
    <path
      d="M20.0739 0.284255C20.2562 0.320073 20.4438 0.320073 20.6262 0.284255C21.5816 1.38265 22.5701 2.55245 23.6636 3.65634L28.3136 8.54969C29.8324 10.1643 31.4395 11.7844 33.4331 13.789V9.25814C33.4331 6.88561 33.4332 3.54649 33.0963 0.196382C33.4206 0.303101 33.7598 0.358703 34.1014 0.361151C34.4759 0.36187 34.8482 0.306313 35.206 0.196382C34.8849 3.711 34.7429 7.23954 34.7807 10.7684V16.1506L34.858 18.276C34.6962 18.265 34.5338 18.265 34.372 18.276C34.236 18.265 34.0994 18.265 33.9634 18.276C31.9692 15.9095 29.8549 13.6457 27.6288 11.4934C25.4198 9.35151 23.0727 6.9625 21.1122 4.83161V6.33092C21.1122 8.56616 21.2171 13.097 21.5208 18.0069C21.1643 17.8918 20.7911 17.8361 20.4163 17.8421C20.0744 17.8419 19.7348 17.8976 19.4111 18.0069C19.505 16.9963 19.748 13.3991 19.748 9.54921C19.748 7.61055 19.6707 2.59638 19.6707 0.103027C19.7857 0.196031 19.9225 0.258395 20.0684 0.284255"
      fill="#FBF6EC" />
    <path
      d="M42.4361 10.0467H47.9587L45.1587 3.6705L42.4361 10.0467ZM45.9153 0.161141C46.0982 0.191058 46.2847 0.191058 46.4676 0.161141C47.7267 3.6101 50.5985 10.2389 54.1993 18.1528C53.6987 18.0432 53.1876 17.988 52.675 17.9881C52.1192 17.9989 51.5652 18.0539 51.0182 18.1528C50.3234 15.8448 49.4501 13.5937 48.406 11.4197H41.8396C40.8487 13.5918 40.0468 15.8445 39.4428 18.1528C39.0957 18.0544 38.7377 17.9991 38.377 17.9881C37.9926 17.9986 37.6107 18.0539 37.2393 18.1528C40.6246 10.8265 43.6953 3.9561 45.1974 0.161141C45.4366 0.176499 45.6767 0.172815 45.9153 0.150146V0.161141Z"
      fill="#FBF6EC" />
    <path
      d="M57.722 0.424038H62.0628C62.9133 0.424038 66.0447 0.347151 66.7129 0.270264C66.6453 0.567705 66.6102 0.871509 66.608 1.17644C66.6041 1.47808 66.6393 1.77897 66.7129 2.07163C64.8839 1.81244 63.0377 1.69127 61.1903 1.70916V11.2542C61.1903 14.0002 61.1902 15.9828 61.3725 18.0698C60.8244 17.9779 60.271 17.9211 59.7157 17.8995C59.2709 17.9091 58.8284 17.9662 58.3958 18.0698C58.5173 16.5595 58.683 12.9458 58.683 7.9151V1.70916C56.7617 1.67592 54.841 1.79714 52.9395 2.07163C52.9965 1.7762 53.0315 1.47699 53.0444 1.17644C53.0452 0.87133 53.0101 0.567182 52.9395 0.270264C53.4254 0.270264 56.8882 0.424038 57.711 0.424038"
      fill="#FBF6EC" />
    <path
      d="M107.421 0.422077C107.976 0.418058 108.53 0.368468 109.077 0.273799C108.923 4.62344 108.846 7.62755 108.846 12.098V16.6344H111.055C112.689 16.6383 114.321 16.5374 115.942 16.3323C115.877 16.6097 115.842 16.8932 115.837 17.1781C115.834 17.4725 115.869 17.7661 115.942 18.0513C115.87 18.0513 112.767 17.8866 110.353 17.8866C108.914 17.8866 107.476 17.9415 106.04 18.0513C106.222 15.0307 106.266 13.2953 106.266 8.85226C106.266 6.27103 106.178 2.34427 106.068 0.257324C106.525 0.366872 106.994 0.42217 107.465 0.422077"
      fill="#FBF6EC" />
    <path
      d="M116.092 0.421462C116.687 0.416196 117.282 0.366636 117.87 0.273185C118.422 1.6297 118.814 2.39858 119.389 3.67272C120.222 5.58929 121.301 7.39089 122.598 9.03288C124.447 6.28291 126 3.34681 127.231 0.273185C127.625 0.388556 128.036 0.438647 128.446 0.421462C128.819 0.42535 129.191 0.375409 129.551 0.273185C128.998 1.06952 128.032 2.58531 126.623 4.80406C125.381 6.66225 124.263 8.5996 123.277 10.6036C123.277 14.8928 123.387 17.3093 123.431 17.9903C123.094 17.8752 122.739 17.8194 122.382 17.8255C121.779 17.7868 121.173 17.8424 120.587 17.9903C120.785 15.6048 120.837 13.2095 120.742 10.8178C118.19 6.59993 116.186 3.26082 114.33 0.240234C114.904 0.360828 115.489 0.421561 116.075 0.421462"
      fill="#FBF6EC" />
    <path
      d="M140.751 0.284289C140.86 0.306183 140.973 0.306183 141.082 0.284289C141.678 1.55294 142.893 3.94194 144.777 7.42386C146.66 10.9058 147.936 13.1685 148.56 14.1351L153.386 5.18862C154.739 2.69526 155.562 1.04769 155.894 0.278809C156.051 0.300753 156.211 0.300753 156.369 0.278809C156.53 0.295298 156.693 0.295298 156.855 0.278809C157.854 9.51082 158.765 16.8975 159.13 18.1826C158.628 18.0904 158.121 18.0335 157.611 18.0124C157.101 18.0199 156.592 18.0769 156.092 18.1826C156.092 16.8041 155.756 12.773 154.955 5.00189C152.481 9.2702 150.244 13.6704 148.256 18.1826C148.139 18.1662 148.02 18.1662 147.902 18.1826C147.793 18.1661 147.681 18.1661 147.571 18.1826C147.102 17.0842 146.737 16.2934 146.582 16.0188L144.373 11.8229C143.053 9.32958 141.866 7.15476 140.762 5.23256C140.15 9.52825 139.794 13.8562 139.696 18.1936C139.382 18.0905 139.054 18.0332 138.724 18.0234C138.302 18.0307 137.883 18.0878 137.476 18.1936C138.028 15.3817 139.729 4.50762 140.138 0.322737L140.751 0.284289Z"
      fill="#FBF6EC" />
    <path
      d="M171.34 17.3651C175.416 17.3651 178.315 14.3445 178.315 9.29742C178.487 7.06359 177.785 4.85004 176.355 3.11895C175.696 2.48634 174.92 1.98817 174.068 1.6526C173.216 1.31715 172.306 1.15289 171.39 1.16931C167.773 1.16931 164.509 3.70659 164.509 9.29742C164.509 14.2402 167.303 17.3651 171.34 17.3651ZM181.281 8.89102C181.281 14.5862 177.343 18.469 171.302 18.469C165.74 18.469 161.576 15.053 161.576 9.40177C161.576 3.75053 165.177 0.0214844 171.556 0.0214844C177.465 0.0434523 181.264 3.74504 181.264 8.86905L181.281 8.89102Z"
      fill="#FBF6EC" />
    <path
      d="M193.194 17.3651C197.281 17.3651 200.18 14.3445 200.18 9.29742C200.364 7.04943 199.654 4.81938 198.203 3.086C197.546 2.4494 196.768 1.94916 195.915 1.61444C195.061 1.27972 194.15 1.11721 193.232 1.13635C189.598 1.13635 186.351 3.67364 186.351 9.26447C186.274 14.2072 189.068 17.3322 193.094 17.3322L193.194 17.3651ZM203.135 8.89102C203.135 14.5862 199.197 18.469 193.15 18.469C187.594 18.469 183.43 15.053 183.43 9.40177C183.43 3.75053 187.03 0.0214844 193.409 0.0214844C199.252 0.0434523 203.129 3.74504 203.129 8.86905L203.135 8.89102Z"
      fill="#FBF6EC" />
    <path
      d="M208.121 0.424038C208.571 0.430835 209.021 0.37914 209.457 0.270264C209.457 1.17644 209.248 3.01625 209.248 5.21304V8.57963C210.357 7.7124 211.417 6.78466 212.423 5.80069C214.223 4.08186 215.907 2.24725 217.465 0.308712C217.91 0.406546 218.363 0.458081 218.818 0.462486C219.208 0.455293 219.595 0.403698 219.973 0.308712V0.462486C219.42 0.885368 217.918 2.29131 215.416 4.66384C212.915 7.03638 211.694 8.22813 211.677 8.22813C213.887 10.7929 219.503 17.0812 220 17.5041V18.1082C219.456 17.9898 218.9 17.9327 218.343 17.938C217.733 17.9536 217.124 18.0104 216.521 18.1082C214.35 14.9972 211.922 12.0709 209.264 9.35949L209.17 9.46383V12.7261C209.141 14.5226 209.211 16.3194 209.38 18.1082C208.909 17.9911 208.424 17.9339 207.939 17.938C207.428 17.9427 206.919 17.9998 206.42 18.1082C206.707 13.5718 206.74 12.8359 206.74 9.25514C206.74 4.72426 206.74 4.1476 206.497 0.308712C207.026 0.417499 207.565 0.469057 208.104 0.462486"
      fill="#FBF6EC" />
    <path opacity="0.7" d="M220 24.2764H0.0107422V23.6723C66.3433 21.3053 101.97 21.4151 220 23.6723V24.2764Z"
      fill="#FBF6EC" />
    <path opacity="0.9"
      d="M142.539 28.3513H25.873V27.6922C71.711 25.9622 96.9219 25.8744 142.522 27.6922L142.539 28.3513Z"
      fill="#FBF6EC" />
    <path d="M112.888 32.0001H55.5244V31.4509C81.1992 30.1273 86.2138 30.0614 112.872 31.4509L112.888 32.0001Z"
      fill="#FBF6EC" />
    <path
      d="M84.1764 0C89.0099 0 93.6455 1.90943 97.0633 5.30825C100.481 8.70707 102.401 13.3169 102.401 18.1235C101.478 17.9112 100.519 17.9112 99.5957 18.1235C99.5957 8.74872 92.6758 1.14232 84.1322 1.14232C75.5887 1.14232 68.6688 8.74872 68.6688 18.1235C67.7458 17.9112 66.7863 17.9112 65.8633 18.1235C65.8633 13.3169 67.7834 8.70707 71.2012 5.30825C74.619 1.90943 79.2545 0 84.088 0"
      fill="url(#paint0_linear_1980_394)" />
  </g>
  <defs>
    <linearGradient id="paint0_linear_1980_394" x1="84.1764" y1="18.14" x2="84.1764" y2="0"
      gradientUnits="userSpaceOnUse">
      <stop stop-color="#FBF6EC" stop-opacity="0.7" />
      <stop offset="1" stop-color="#FBF6EC" />
    </linearGradient>
    <clipPath id="clip0_1980_394">
      <rect width="220" height="32" fill="white" />
    </clipPath>
  </defs>
</svg>