<svg width="150" height="56" viewBox="0 0 150 56" fill="none" xmlns="http://www.w3.org/2000/svg">
<g id="Frame 1321315374" clip-path="url(#clip0_1003_177)">
<g id="Group 1321315366">
<path id="Vector" d="M13.9689 44.0732C14.0932 44.0944 14.2202 44.0944 14.3446 44.0732C15.1652 46.3168 17.0337 50.6367 19.3868 55.793C19.0617 55.7247 18.7303 55.6917 18.3981 55.6946C18.0367 55.6962 17.6761 55.7291 17.3204 55.793C16.8702 54.2879 16.3016 52.8205 15.6199 51.4042H11.3588C10.7237 52.8243 10.2014 54.2917 9.79672 55.793C9.57159 55.7291 9.33876 55.696 9.10466 55.6946C8.85762 55.6969 8.61185 55.73 8.37305 55.793C10.5778 51.0205 12.5749 46.553 13.5536 44.0732C13.6919 44.0832 13.8306 44.0832 13.9689 44.0732ZM11.7048 50.5678H15.2838L13.4647 46.4152L11.7048 50.5678Z" fill="#FCF6EC"/>
<path id="Vector_2" d="M21.4296 44.1236C21.5478 44.1382 21.6674 44.1382 21.7856 44.1236C22.4084 44.8419 23.051 45.5996 23.7629 46.3179L26.7981 49.4963C27.7867 50.5492 28.8248 51.6021 30.12 52.9109V49.9588C30.12 48.4238 30.12 46.2392 29.9025 44.0547C30.1169 44.121 30.3403 44.1542 30.5649 44.1531C30.8086 44.1499 31.051 44.1169 31.2866 44.0547C31.0667 46.3439 30.971 48.6433 30.9999 50.9429C30.9999 52.7338 30.9999 53.8949 30.9999 54.446V55.8335C30.8417 55.8335 30.7923 55.8335 30.6736 55.8335H30.4067C29.418 54.5936 27.9153 53.0093 26.284 51.4152C24.8603 50.0277 23.318 48.4631 22.0525 47.0756V48.1384C22.0525 49.5947 22.1118 52.537 22.3194 55.735C22.0885 55.6666 21.8485 55.6334 21.6076 55.6366C21.3862 55.6341 21.1658 55.6673 20.9551 55.735C21.0243 55.0856 21.1726 52.7338 21.1726 50.2245C21.1726 48.9748 21.1726 45.7078 21.1726 44.0842C21.2554 44.1119 21.3423 44.1252 21.4296 44.1236Z" fill="#FCF6EC"/>
<path id="Vector_3" d="M38.262 44.0732C38.383 44.0942 38.5067 44.0942 38.6278 44.0732C39.4582 46.3168 41.3268 50.6367 43.6798 55.793C43.3548 55.7249 43.0233 55.6919 42.6912 55.6946C42.333 55.6958 41.9757 55.7287 41.6234 55.793C41.1688 54.2894 40.6003 52.8223 39.9229 51.4042H35.6519C35.0124 52.8225 34.49 54.2903 34.0898 55.793C33.8644 55.7306 33.6317 55.6975 33.3977 55.6946C33.1475 55.6978 32.8986 55.7308 32.6562 55.793C34.861 51.0205 36.868 46.553 37.8368 44.0732C37.9784 44.0822 38.1204 44.0822 38.262 44.0732ZM35.988 50.5678H39.5769L37.7577 46.4152L35.988 50.5678Z" fill="#FCF6EC"/>
<path id="Vector_4" d="M45.9366 44.2605H48.7641C49.3178 44.2605 51.3544 44.2605 51.7993 44.1621C51.7509 44.3518 51.7276 44.547 51.7301 44.7427C51.7238 44.9418 51.7471 45.1408 51.7993 45.3331C50.6111 45.1611 49.4111 45.0821 48.2105 45.0969C48.2105 46.081 48.2105 49.2692 48.2105 51.3061C48.2105 53.1167 48.2105 54.3861 48.3291 55.7441C47.9655 55.6908 47.5991 55.658 47.2317 55.6457C46.9426 55.6528 46.6547 55.6857 46.3716 55.7441C46.4605 54.7601 46.5594 52.4082 46.5594 49.1314C46.5594 48.6099 46.5594 47.7932 46.5594 46.6911C46.5594 45.589 46.5594 45.0969 46.5594 45.0969C45.3092 45.0694 44.0589 45.1484 42.8223 45.3331C42.8603 45.1383 42.8834 44.9409 42.8915 44.7427C42.8873 44.5474 42.8641 44.353 42.8223 44.1621C43.1485 44.2113 45.4027 44.2605 45.9366 44.2605Z" fill="#FCF6EC"/>
<path id="Vector_5" d="M65.0612 49.7517C65.0612 53.4714 62.5006 56.0003 58.5657 56.0003C54.9472 56.0003 52.2383 53.7665 52.2383 50.0961C52.2383 46.4257 54.5814 43.9854 58.7338 43.9854C62.5896 44.005 65.0612 46.4159 65.0612 49.7517ZM58.6053 55.2721C61.2549 55.2721 63.1432 53.3041 63.1432 50.0174C63.257 48.5652 62.7998 47.1257 61.8679 46.0026C61.0032 45.1666 59.8403 44.7065 58.6349 44.7234C56.2819 44.7234 54.1563 46.3864 54.1563 50.0174C54.1563 53.2352 55.9754 55.2721 58.6053 55.2721Z" fill="#FCF6EC"/>
<path id="Vector_6" d="M68.2945 44.2606C68.6492 44.2564 69.003 44.2235 69.3523 44.1622C69.2535 46.9863 69.204 48.9445 69.204 51.8572V54.8093C69.5599 54.8093 70.1927 54.8093 70.6376 54.8093C71.6988 54.8186 72.7593 54.7528 73.8112 54.6125C73.768 54.7931 73.7447 54.9779 73.742 55.1636C73.7395 55.356 73.7627 55.548 73.8112 55.7343C73.7618 55.7343 71.7449 55.6359 70.1828 55.6359C68.8679 55.6359 68.4823 55.6359 67.375 55.7343C67.4838 53.7662 67.5233 52.6346 67.5233 49.7416C67.5233 48.0687 67.4541 45.5005 67.3849 44.1523C67.6836 44.2191 67.9884 44.2554 68.2945 44.2606Z" fill="#FCF6EC"/>
<path id="Vector_7" d="M73.903 44.2609C74.2938 44.2586 74.6839 44.2257 75.0696 44.1625C75.3615 44.9134 75.6915 45.6491 76.0582 46.3667C77.3138 48.8169 78.0356 49.8698 78.1443 49.8698C79.3279 48.0742 80.3219 46.1616 81.1103 44.1625C81.3676 44.2339 81.6342 44.2671 81.9012 44.2609C82.1516 44.2594 82.4007 44.2263 82.6427 44.1625C82.2868 44.6742 81.6541 45.668 80.7247 47.1146C79.916 48.328 79.1894 49.5936 78.5497 50.9031C78.5497 53.6977 78.6189 55.2721 78.6584 55.7051C78.434 55.6379 78.2007 55.6047 77.9664 55.6067C77.578 55.5827 77.1882 55.6158 76.8096 55.7051C76.931 54.1502 76.964 52.5896 76.9085 51.031C75.2376 48.2856 73.9425 46.1109 72.7363 44.1428C73.1209 44.2166 73.5113 44.2562 73.903 44.2609Z" fill="#FCF6EC"/>
<path id="Vector_8" d="M90.1753 44.0947C90.5609 44.9115 91.3518 46.4662 92.5777 48.7491C93.8037 51.0321 94.6243 52.4786 95.0296 53.1182L98.1736 47.2928C99.0535 45.6692 99.5873 44.5966 99.8147 44.0947C100.018 44.1195 100.224 44.1195 100.428 44.0947C101.09 50.1071 101.673 54.919 101.911 55.7456C101.583 55.693 101.253 55.6601 100.922 55.6472C100.59 55.6479 100.259 55.6808 99.9334 55.7456C99.9334 54.8599 99.7159 52.2326 99.2018 47.1747C97.5856 49.9466 96.1299 52.8083 94.8418 55.7456C94.763 55.7361 94.6833 55.7361 94.6045 55.7456C94.5323 55.736 94.4592 55.736 94.387 55.7456C94.0805 55.0469 93.8531 54.5253 93.7443 54.3384L92.3207 51.6126C91.4605 49.989 90.6894 48.5622 89.9578 47.3026C89.5628 50.101 89.335 52.9203 89.2756 55.7456C89.0664 55.6859 88.8505 55.6529 88.633 55.6472C88.3598 55.6488 88.0878 55.6818 87.8223 55.7456C88.1782 53.9251 89.2855 46.8401 89.5623 44.1144C89.7668 44.1257 89.9719 44.1191 90.1753 44.0947Z" fill="#FCF6EC"/>
<path id="Vector_9" d="M116.313 49.7517C116.313 53.4714 113.762 56.0003 109.827 56.0003C106.209 56.0003 103.5 53.7665 103.5 50.0961C103.5 46.4257 105.833 43.9854 109.996 43.9854C113.841 44.005 116.313 46.4159 116.313 49.7517ZM109.857 55.2721C112.517 55.2721 114.395 53.3041 114.395 50.0174C114.513 48.5647 114.055 47.1237 113.12 46.0026C112.255 45.1666 111.092 44.7065 109.887 44.7234C107.534 44.7234 105.418 46.3864 105.418 50.0174C105.418 53.2352 107.237 55.2721 109.857 55.2721Z" fill="#FCF6EC"/>
<path id="Vector_10" d="M130.481 49.7517C130.481 53.4714 127.92 56.0003 123.986 56.0003C120.377 56.0003 117.668 53.7665 117.668 50.0961C117.668 46.4257 120.001 43.9854 124.154 43.9854C128.019 44.005 130.481 46.4159 130.481 49.7517ZM124.025 55.2721C126.685 55.2721 128.563 53.3041 128.563 50.0174C128.677 48.5652 128.22 47.1257 127.288 46.0026C126.423 45.1666 125.26 44.7065 124.055 44.7234C121.702 44.7234 119.586 46.3864 119.586 50.0174C119.606 53.2352 121.405 55.2721 124.035 55.2721H124.025Z" fill="#FCF6EC"/>
<path id="Vector_11" d="M133.793 44.2605C134.086 44.2662 134.378 44.2331 134.663 44.1621C134.663 44.7427 134.534 45.9334 134.534 47.37C134.534 48.482 134.534 49.3971 134.534 49.5546C135.254 48.987 135.944 48.3827 136.601 47.744C137.764 46.6153 138.86 45.4193 139.883 44.1621C140.169 44.2213 140.46 44.2543 140.753 44.2605C141.009 44.2519 141.264 44.219 141.514 44.1621V44.2605C141.148 44.5262 140.189 45.4512 138.548 46.9863C136.907 48.5213 136.126 49.3184 136.106 49.3184C137.56 50.9913 141.208 55.0749 141.524 55.3603V55.7441C141.175 55.6771 140.821 55.6442 140.466 55.6457C140.066 55.6511 139.666 55.684 139.27 55.7441C137.861 53.7175 136.279 51.8147 134.544 50.0564L134.495 50.1155V52.241C134.495 53.284 134.495 54.5731 134.623 55.7441C134.315 55.6726 134 55.6395 133.684 55.6457C133.352 55.6476 133.021 55.6805 132.695 55.7441C132.883 52.792 132.893 52.3098 132.893 49.9875C132.893 46.9863 132.893 46.6517 132.745 44.1621C133.09 44.229 133.441 44.262 133.793 44.2605Z" fill="#FCF6EC"/>
<path id="Vector_12" d="M95.5662 7.54583L83.0992 22.6506L82.6543 22.2668L95.4278 7.42773L95.5662 7.54583Z" fill="#FCF6EC"/>
<path id="Vector_13" d="M99.7233 11.258L84.5671 24.1783L84.1914 23.7256L99.6146 11.1301L99.7233 11.258Z" fill="#FCF6EC"/>
<path id="Vector_14" d="M99.7629 17.6827L85.7634 25.9583L85.4668 25.4565L99.6739 17.5449L99.7629 17.6827Z" fill="#FCF6EC"/>
<path id="Vector_15" d="M101.884 22.1789L86.6294 27.9256L86.4316 27.3844L101.825 22.0215L101.884 22.1789Z" fill="#FCF6EC"/>
<path id="Vector_16" d="M103.158 26.9818L87.1321 29.9929L87.0332 29.4221L103.129 26.8145L103.158 26.9818Z" fill="#FCF6EC"/>
<path id="Vector_17" d="M106.962 31.9014L87.2871 32.108V31.5176L106.962 31.7144V31.9014Z" fill="#FCF6EC"/>
<path id="Vector_18" d="M89.3342 7.24195L81.3754 21.3725L80.8613 21.0773L89.1661 7.14355L89.3342 7.24195Z" fill="#FCF6EC"/>
<path id="Vector_19" d="M84.8402 5.12553L79.452 20.4172L78.9082 20.2106L84.6523 5.05664L84.8402 5.12553Z" fill="#FCF6EC"/>
<path id="Vector_20" d="M74.6758 19.5722L74.8636 0H75.0711L75.259 19.5722H74.6758Z" fill="#FCF6EC"/>
<path id="Vector_21" d="M80.0169 3.81767L77.3877 19.8179L76.8145 19.7195L79.8291 3.77832L80.0169 3.81767Z" fill="#FCF6EC"/>
<path id="Vector_22" d="M62.6411 32.108L42.9766 31.8915V31.7341L62.6411 31.5176V32.108Z" fill="#FCF6EC"/>
<path id="Vector_23" d="M65.3514 24.1666C60.9617 20.447 54.5849 14.8872 50.2051 11.266L50.3336 11.1184C54.6541 14.7593 61.3078 20.0828 65.7271 23.7139L65.3514 24.1666Z" fill="#FCF6EC"/>
<path id="Vector_24" d="M66.8322 22.6211L54.375 7.54583L54.5134 7.42773L67.2771 22.2471L66.8322 22.6211Z" fill="#FCF6EC"/>
<path id="Vector_25" d="M68.5644 21.353L60.5859 7.21258L60.754 7.12402L69.0786 21.0578L68.5644 21.353Z" fill="#FCF6EC"/>
<path id="Vector_26" d="M70.4781 20.3978L65.0898 5.09623L65.2678 5.02734L71.0317 20.201L70.4781 20.3978Z" fill="#FCF6EC"/>
<path id="Vector_27" d="M72.5435 19.8081L69.8945 3.79807L70.0922 3.76855L73.1168 19.7097L72.5435 19.8081Z" fill="#FCF6EC"/>
<path id="Vector_28" d="M64.1716 25.938L50.1523 17.6623L50.2413 17.5049L64.4682 25.4263L64.1716 25.938Z" fill="#FCF6EC"/>
<path id="Vector_29" d="M63.296 27.8867L48.0508 22.1499L48.1101 21.9924L63.4937 27.3455L63.296 27.8867Z" fill="#FCF6EC"/>
<path id="Vector_30" d="M62.7917 29.9823L46.7754 26.9614L46.8149 26.7744L62.8906 29.4018L62.7917 29.9823Z" fill="#FCF6EC"/>
<path id="Vector_31" d="M86.4074 31.8735V32.1392H85.8241V31.8735C85.8241 29.0027 84.6784 26.2495 82.6388 24.2196C80.5993 22.1897 77.8332 21.0492 74.9488 21.0492C72.0645 21.0492 69.2984 22.1897 67.2588 24.2196C65.2193 26.2495 64.0735 29.0027 64.0735 31.8735V32.1392H63.4902V31.8735C63.4902 28.8514 64.6964 25.953 66.8435 23.816C68.9905 21.679 71.9026 20.4785 74.939 20.4785C77.9753 20.4785 80.8874 21.679 83.0344 23.816C85.1815 25.953 86.3877 28.8514 86.3877 31.8735H86.4074Z" fill="#FCF6EC"/>
<path id="Vector_32" d="M149.97 42.1047C103.157 32.6974 46.042 32.7466 0 42.1047V41.8882C44.9743 31.3296 104.185 31.1525 150 41.839L149.97 42.1047Z" fill="#FCF6EC"/>
</g>
</g>
<defs>
<clipPath id="clip0_1003_177">
<rect width="150" height="56" fill="white"/>
</clipPath>
</defs>
</svg>
