<svg xmlns="http://www.w3.org/2000/svg" width="100%" height="100%" viewBox="0 0 24 25" fill="none">
  <path
    d="M10.5004 12.5H5.00043M4.91577 12.2085L2.58085 5.23377C2.39742 4.68583 2.3057 4.41186 2.37152 4.24314C2.42868 4.09663 2.55144 3.98554 2.70292 3.94327C2.87736 3.89459 3.14083 4.01315 3.66776 4.25027L20.3792 11.7704C20.8936 12.0019 21.1507 12.1176 21.2302 12.2784C21.2993 12.418 21.2993 12.5819 21.2302 12.7216C21.1507 12.8823 20.8936 12.9981 20.3792 13.2295L3.66193 20.7522C3.13659 20.9886 2.87392 21.1068 2.69966 21.0584C2.54832 21.0162 2.42556 20.9055 2.36821 20.7592C2.30216 20.5908 2.3929 20.3174 2.57437 19.7707L4.91642 12.7144C4.94759 12.6205 4.96317 12.5736 4.96933 12.5256C4.97479 12.4829 4.97473 12.4398 4.96916 12.3972C4.96289 12.3492 4.94718 12.3023 4.91577 12.2085Z"
    stroke="#FFFBF5" stroke-width="1.25" stroke-linecap="round" stroke-linejoin="round" />
</svg>