<svg width="182" height="45" viewBox="0 0 182 45" fill="none" xmlns="http://www.w3.org/2000/svg">
<g id="Group">
<path id="Vector" d="M45.0984 22.5C45.0984 34.8672 35.1018 44.8935 22.7661 44.8935C10.4304 44.8935 0.429688 34.8672 0.429688 22.5C0.429688 10.1327 10.4304 0.106445 22.7661 0.106445C35.1018 0.106445 45.0984 10.1327 45.0984 22.5Z" fill="#565A50"/>
<path id="Vector_2" d="M22.9418 34.9863C16.8068 35.0072 10.4214 29.7572 10.3927 21.3232C10.3721 15.7484 13.3761 10.3794 17.2089 7.19501C20.9515 4.09291 26.077 2.09751 30.7224 2.08105C31.3215 2.08105 31.9494 2.13034 32.331 2.262C28.2684 3.10542 25.0347 6.89868 25.047 11.198C25.047 11.3419 25.0592 11.4942 25.0756 11.5642C31.8754 13.2263 34.9614 17.3405 34.9819 23.0304C34.9983 28.7245 30.5172 34.9616 22.9418 34.9863Z" fill="#171715"/>
<g id="Group_2">
<path id="Vector_3" d="M59.5239 31.7735L52.6953 15.436H57.156L61.4157 26.2851L65.544 15.436H69.8036L63.1762 31.7735H59.5239Z" fill="#565A50"/>
<path id="Vector_4" d="M81.6878 23.5205C81.6878 22.8416 81.6099 22.1957 81.4498 21.5827C81.2938 20.9697 81.0558 20.4431 80.7398 20.0029C80.4239 19.5585 80.0422 19.2088 79.5908 18.9496C79.1394 18.6863 78.61 18.5546 78.0027 18.5546C77.3953 18.5546 76.8618 18.6863 76.4145 18.9496C75.9631 19.2088 75.5774 19.5585 75.2655 20.0029C74.9495 20.4431 74.7115 20.9697 74.5556 21.5827C74.3955 22.1957 74.3175 22.8416 74.3175 23.5205C74.3175 24.224 74.3955 24.8781 74.5556 25.4788C74.7115 26.0795 74.9413 26.6061 75.245 27.0587C75.5487 27.5113 75.9344 27.8691 76.3981 28.1325C76.8578 28.3916 77.3953 28.5233 78.0027 28.5233C78.61 28.5233 79.1394 28.3916 79.5908 28.1325C80.0422 27.8691 80.4239 27.5113 80.7398 27.0587C81.0558 26.6061 81.2938 26.0795 81.4498 25.4788C81.6098 24.8781 81.6878 24.224 81.6878 23.5205ZM85.812 23.5384C85.812 24.604 85.6479 25.649 85.3237 26.6775C84.9954 27.7061 84.5111 28.6235 83.8669 29.4381C83.2267 30.2527 82.4142 30.9069 81.4334 31.4047C80.4526 31.9025 79.3077 32.1494 78.0027 32.1494C76.6936 32.1494 75.5487 31.9025 74.572 31.4047C73.5912 30.9069 72.7787 30.2527 72.1344 29.4381C71.4942 28.6235 71.01 27.7061 70.6817 26.6775C70.3575 25.649 70.1934 24.604 70.1934 23.5384C70.1934 22.477 70.3575 21.4401 70.6817 20.4198C71.01 19.4036 71.4942 18.4944 72.1344 17.6921C72.7787 16.8899 73.5912 16.248 74.572 15.7626C75.5487 15.2771 76.6936 15.0303 78.0027 15.0303C79.3077 15.0303 80.4485 15.2772 81.417 15.7626C82.3854 16.248 83.198 16.8899 83.8505 17.6921C84.507 18.4944 84.9954 19.4036 85.3237 20.4198C85.6479 21.4401 85.812 22.477 85.812 23.5384Z" fill="#565A50"/>
<path id="Vector_5" d="M98.4066 19.0318C97.5982 18.715 96.8472 18.5546 96.1496 18.5546C95.4355 18.5546 94.8159 18.6946 94.3029 18.966C93.7859 19.2374 93.3591 19.6037 93.0226 20.0686C92.6861 20.5335 92.4357 21.056 92.2675 21.6361C92.0992 22.2121 92.0131 22.8087 92.0131 23.4217C92.0131 24.1005 92.0869 24.7505 92.2347 25.3759C92.3783 25.9972 92.604 26.5444 92.9077 27.0092C93.2073 27.4742 93.5889 27.8485 94.0485 28.1324C94.5081 28.4122 95.0539 28.5562 95.6818 28.5562C96.1988 28.5562 96.7241 28.4123 97.2617 28.1324C97.7993 27.8485 98.1809 27.5112 98.4066 27.1286L98.4066 19.0318ZM98.7431 31.7735L98.5749 30.5228C98.1932 30.9507 97.6885 31.3291 97.0565 31.6542C96.4286 31.9833 95.6859 32.1479 94.8323 32.1479C93.712 32.1479 92.7189 31.9093 91.8694 31.4361C91.0118 30.963 90.2936 30.3294 89.7109 29.5395C89.1282 28.7496 88.6809 27.8321 88.3772 26.7912C88.0776 25.7544 87.9258 24.6683 87.9258 23.5369C87.9258 22.4754 88.0817 21.4345 88.3936 20.4183C88.7096 19.4021 89.1856 18.4929 89.8258 17.6906C90.4701 16.8884 91.2703 16.2466 92.2388 15.7611C93.2031 15.2756 94.3399 15.0287 95.6407 15.0287C96.4943 15.0287 97.4176 15.1891 98.4066 15.5019V9.16602H102.597V31.7735H98.7431Z" fill="#565A50"/>
<path id="Vector_6" d="M114.399 24.1129C113.947 24.1368 113.48 24.1789 113.003 24.2323C112.527 24.29 112.076 24.364 111.645 24.4545C110.734 24.6354 110.106 24.9441 109.753 25.3843C109.405 25.8287 109.228 26.3059 109.228 26.8284C109.228 27.3673 109.425 27.8035 109.823 28.1326C110.221 28.4576 110.779 28.6221 111.506 28.6221C112.051 28.6221 112.581 28.5111 113.09 28.2848C113.599 28.0585 114.038 27.7747 114.399 27.4373V24.1129ZM114.735 31.7613L114.571 30.5393C114.116 31.0412 113.541 31.4362 112.839 31.7201C112.138 32.004 111.37 32.148 110.533 32.148C109.831 32.148 109.154 32.0285 108.514 31.79C107.866 31.5557 107.295 31.2141 106.799 30.7738C106.302 30.3336 105.9 29.7947 105.596 29.1487C105.289 28.5028 105.137 27.7746 105.137 26.96C105.137 26.1495 105.293 25.4295 105.613 24.8083C105.929 24.187 106.356 23.6645 106.901 23.2325C107.443 22.8046 108.067 22.455 108.768 22.1834C109.466 21.912 110.205 21.7061 110.972 21.5704C111.514 21.4593 112.109 21.3769 112.753 21.3193C113.397 21.2617 113.935 21.2124 114.366 21.167V20.9285C114.366 20.0234 114.136 19.3815 113.668 18.9948C113.205 18.6122 112.564 18.4188 111.752 18.4188C111.276 18.4188 110.82 18.4764 110.389 18.5917C109.959 18.7027 109.577 18.8428 109.236 19.0113C108.896 19.1842 108.596 19.3528 108.333 19.5215C108.075 19.6902 107.866 19.8424 107.706 19.9782L106.319 17.0324C106.499 16.8721 106.774 16.6827 107.148 16.4564C107.521 16.2301 107.968 16.008 108.502 15.794C109.031 15.5799 109.626 15.3991 110.291 15.2509C110.956 15.1029 111.674 15.0288 112.437 15.0288C113.34 15.0288 114.165 15.1483 114.908 15.3868C115.65 15.6253 116.295 15.9957 116.836 16.5058C117.374 17.0119 117.797 17.6537 118.104 18.4354C118.408 19.213 118.56 20.1551 118.56 21.2618V31.7613H114.735Z" fill="#565A50"/>
<path id="Vector_7" d="M131.509 12.8933C131.374 12.8277 131.111 12.7289 130.717 12.6053C130.319 12.4819 129.798 12.4202 129.142 12.4202C128.559 12.4202 128.066 12.5972 127.673 12.9468C127.279 13.2965 127.082 13.8684 127.082 14.6583V15.4359H130.598V18.8259H127.114V31.7733H122.92V18.8259H120.758V15.4359H122.92V14.5554C122.92 13.494 123.056 12.5971 123.327 11.8606C123.598 11.1283 123.975 10.5276 124.459 10.0668C124.944 9.60193 125.514 9.26047 126.166 9.04653C126.823 8.83246 127.533 8.72559 128.3 8.72559C129.314 8.72559 130.151 8.82022 130.816 9.01368C131.481 9.20714 131.871 9.3346 131.981 9.40455L131.509 12.8933Z" fill="#565A50"/>
<path id="Vector_8" d="M142.94 23.5205C142.94 22.8416 142.858 22.1957 142.702 21.5827C142.546 20.9697 142.308 20.4431 141.992 20.0029C141.676 19.5585 141.294 19.2088 140.843 18.9496C140.391 18.6863 139.862 18.5546 139.255 18.5546C138.647 18.5546 138.114 18.6863 137.667 18.9496C137.215 19.2088 136.829 19.5585 136.513 20.0029C136.201 20.4431 135.963 20.9697 135.803 21.5827C135.647 22.1957 135.57 22.8416 135.57 23.5205C135.57 24.224 135.647 24.8781 135.803 25.4788C135.963 26.0795 136.193 26.6061 136.497 27.0587C136.801 27.5113 137.186 27.8691 137.646 28.1325C138.11 28.3916 138.647 28.5233 139.255 28.5233C139.862 28.5233 140.391 28.3916 140.843 28.1325C141.294 27.8691 141.676 27.5113 141.992 27.0587C142.308 26.6061 142.546 26.0795 142.702 25.4788C142.858 24.8781 142.94 24.224 142.94 23.5205ZM147.064 23.5384C147.064 24.604 146.9 25.649 146.572 26.6775C146.247 27.7061 145.763 28.6235 145.119 29.4381C144.479 30.2527 143.666 30.9069 142.685 31.4047C141.705 31.9025 140.56 32.1494 139.255 32.1494C137.946 32.1494 136.801 31.9025 135.824 31.4047C134.843 30.9069 134.031 30.2527 133.386 29.4381C132.746 28.6235 132.262 27.7061 131.934 26.6775C131.605 25.649 131.445 24.604 131.445 23.5384C131.445 22.477 131.605 21.4401 131.934 20.4198C132.262 19.4036 132.746 18.4944 133.386 17.6921C134.031 16.8899 134.843 16.248 135.824 15.7626C136.801 15.2771 137.946 15.0303 139.255 15.0303C140.56 15.0303 141.7 15.2772 142.669 15.7626C143.637 16.248 144.45 16.8899 145.102 17.6921C145.759 18.4944 146.247 19.4036 146.572 20.4198C146.9 21.4401 147.064 22.477 147.064 23.5384Z" fill="#565A50"/>
<path id="Vector_9" d="M160.077 31.7733V22.4547C160.077 21.2122 159.819 20.2495 159.302 19.5707C158.781 18.8959 158.063 18.5544 157.135 18.5544C156.483 18.5544 155.879 18.7231 155.329 19.0646C154.775 19.4019 154.295 19.7763 153.889 20.1837V31.7733H149.699V15.4359H153.52L153.721 16.7237C154.377 16.1847 155.112 15.765 155.937 15.4729C156.758 15.1768 157.587 15.0327 158.42 15.0327C159.277 15.0327 160.065 15.1602 160.787 15.4194C161.51 15.6828 162.129 16.0941 162.646 16.6578C163.168 17.2214 163.566 17.9579 163.849 18.8589C164.128 19.764 164.271 20.8502 164.271 22.1132V31.7733H160.077Z" fill="#565A50"/>
<path id="Vector_10" d="M177.312 21.6399C177.267 21.0762 177.148 20.5825 176.955 20.167C176.763 19.7474 176.525 19.41 176.241 19.1508C175.958 18.8875 175.655 18.6982 175.326 18.5707C174.994 18.4474 174.662 18.3856 174.321 18.3856C173.595 18.3856 172.905 18.657 172.249 19.2002C171.592 19.7433 171.206 20.5537 171.091 21.6399H177.312ZM170.993 24.6556C171.083 26.0338 171.51 27.0295 172.281 27.6384C173.049 28.2473 174.046 28.5558 175.265 28.5558C175.831 28.5558 176.365 28.5024 176.861 28.4036C177.358 28.3009 177.801 28.1731 178.187 28.0128C178.572 27.8563 178.901 27.696 179.171 27.5396C179.442 27.3793 179.643 27.2311 179.783 27.0953L180.899 30.5224C180.739 30.6334 180.485 30.7857 180.136 30.9791C179.787 31.1725 179.352 31.3494 178.835 31.5221C178.318 31.6908 177.706 31.8348 177.009 31.9623C176.311 32.0857 175.544 32.1474 174.711 32.1474C173.648 32.1474 172.643 31.9788 171.682 31.6414C170.726 31.3 169.885 30.7733 169.167 30.0616C168.444 29.3498 167.87 28.4653 167.443 27.4038C167.012 26.3423 166.799 25.0752 166.799 23.6064C166.799 22.2281 166.996 21.0063 167.39 19.9448C167.784 18.8833 168.325 17.9905 169.011 17.2664C169.7 16.5464 170.5 15.991 171.411 15.6043C172.327 15.2217 173.299 15.0283 174.337 15.0283C175.376 15.0283 176.332 15.2012 177.214 15.5385C178.092 15.8758 178.851 16.4025 179.496 17.1142C180.136 17.826 180.645 18.7475 181.014 19.8789C181.387 21.0062 181.572 22.3516 181.572 23.9109V24.6555L170.993 24.6556Z" fill="#565A50"/>
</g>
</g>
</svg>
