<svg width="132" height="34" viewBox="0 0 132 34" fill="none" xmlns="http://www.w3.org/2000/svg">
<g id="Group">
<path id="Vector" d="M32.5715 16.9997C32.5715 26.0859 25.2914 33.4522 16.3078 33.4522C7.32414 33.4522 0.0410156 26.0859 0.0410156 16.9997C0.0410156 7.9136 7.32414 0.547363 16.3078 0.547363C25.2914 0.547363 32.5715 7.9136 32.5715 16.9997Z" fill="#565A50"/>
<path id="Vector_2" d="M16.436 26.1738C11.9681 26.1892 7.31787 22.3321 7.29695 16.1356C7.28199 12.0399 9.46963 8.09527 12.261 5.75572C14.9865 3.47663 18.7192 2.01062 22.1023 1.99854C22.5386 1.99854 22.9959 2.03474 23.2738 2.13148C20.3151 2.75113 17.9601 5.53801 17.9691 8.69672C17.9691 8.80245 17.978 8.9143 17.9899 8.96572C22.942 10.1869 25.1894 13.2096 25.2043 17.3899C25.2162 21.5733 21.9529 26.1557 16.436 26.1738Z" fill="#171715"/>
<g id="Group_2">
<path id="Vector_3" d="M43.0765 23.8131L38.1035 11.8101H41.3521L44.4542 19.7808L47.4607 11.8101H50.5628L45.7363 23.8131H43.0765Z" fill="#565A50"/>
<path id="Vector_4" d="M59.2167 17.7494C59.2167 17.2507 59.1599 16.7761 59.0433 16.3257C58.9297 15.8754 58.7564 15.4885 58.5263 15.1651C58.2962 14.8386 58.0182 14.5817 57.6895 14.3912C57.3608 14.1978 56.9752 14.1011 56.5329 14.1011C56.0906 14.1011 55.7021 14.1978 55.3763 14.3912C55.0476 14.5816 54.7667 14.8386 54.5396 15.1651C54.3094 15.4885 54.1361 15.8754 54.0225 16.3257C53.906 16.7761 53.8492 17.2507 53.8492 17.7494C53.8492 18.2663 53.906 18.7469 54.0225 19.1882C54.1361 19.6295 54.3035 20.0164 54.5246 20.3489C54.7458 20.6814 55.0267 20.9444 55.3644 21.1378C55.6991 21.3282 56.0906 21.425 56.5329 21.425C56.9752 21.425 57.3608 21.3282 57.6895 21.1378C58.0182 20.9444 58.2962 20.6814 58.5263 20.3489C58.7564 20.0164 58.9298 19.6295 59.0433 19.1882C59.1599 18.7469 59.2167 18.2663 59.2167 17.7494ZM62.2202 17.7626C62.2202 18.5455 62.1006 19.3132 61.8645 20.0689C61.6254 20.8245 61.2728 21.4986 60.8036 22.0971C60.3374 22.6956 59.7456 23.1762 59.0314 23.5419C58.3171 23.9077 57.4833 24.089 56.5329 24.089C55.5796 24.089 54.7458 23.9076 54.0345 23.5419C53.3202 23.1762 52.7285 22.6956 52.2593 22.0971C51.7931 21.4986 51.4404 20.8245 51.2013 20.0689C50.9652 19.3132 50.8457 18.5455 50.8457 17.7626C50.8457 16.9827 50.9652 16.221 51.2013 15.4714C51.4404 14.7248 51.7931 14.0568 52.2593 13.4674C52.7285 12.878 53.3202 12.4064 54.0345 12.0497C54.7458 11.6931 55.5796 11.5117 56.5329 11.5117C57.4833 11.5117 58.3141 11.6931 59.0194 12.0497C59.7247 12.4064 60.3164 12.878 60.7916 13.4674C61.2698 14.0568 61.6254 14.7248 61.8645 15.4714C62.1006 16.221 62.2202 16.9827 62.2202 17.7626Z" fill="#565A50"/>
<path id="Vector_5" d="M71.3945 14.452C70.8058 14.2192 70.2589 14.1013 69.7508 14.1013C69.2308 14.1013 68.7795 14.2042 68.406 14.4036C68.0294 14.603 67.7186 14.8721 67.4735 15.2137C67.2284 15.5552 67.0461 15.9391 66.9236 16.3653C66.8011 16.7885 66.7383 17.2268 66.7383 17.6772C66.7383 18.1759 66.7921 18.6535 66.8997 19.1129C67.0043 19.5693 67.1687 19.9714 67.3898 20.3129C67.608 20.6545 67.8859 20.9295 68.2207 21.1381C68.5554 21.3436 68.9529 21.4494 69.4101 21.4494C69.7867 21.4494 70.1692 21.3437 70.5607 21.1381C70.9522 20.9295 71.2301 20.6817 71.3945 20.4006L71.3945 14.452ZM71.6396 23.8132L71.517 22.8943C71.2391 23.2087 70.8715 23.4867 70.4113 23.7255C69.954 23.9673 69.4131 24.0883 68.7915 24.0883C67.9756 24.0883 67.2524 23.913 66.6337 23.5653C66.0091 23.2177 65.4861 22.7522 65.0617 22.1719C64.6374 21.5915 64.3116 20.9175 64.0905 20.1527C63.8723 19.391 63.7617 18.593 63.7617 17.7618C63.7617 16.982 63.8753 16.2172 64.1024 15.4706C64.3325 14.724 64.6792 14.056 65.1454 13.4666C65.6146 12.8772 66.1974 12.4056 66.9027 12.049C67.605 11.6923 68.4328 11.5109 69.3802 11.5109C70.0018 11.5109 70.6743 11.6287 71.3945 11.8585V7.20361H74.4458V23.8132H71.6396Z" fill="#565A50"/>
<path id="Vector_6" d="M83.0381 18.1848C82.7094 18.2023 82.3687 18.2333 82.022 18.2725C81.6754 18.3149 81.3466 18.3693 81.0328 18.4357C80.3694 18.5686 79.9121 18.7954 79.6551 19.1189C79.4011 19.4453 79.2725 19.7959 79.2725 20.1798C79.2725 20.5758 79.416 20.8962 79.7059 21.138C79.9958 21.3768 80.4022 21.4977 80.9312 21.4977C81.3287 21.4977 81.7142 21.4161 82.0848 21.2498C82.4554 21.0836 82.7751 20.875 83.0381 20.6272V18.1848ZM83.2832 23.804L83.1637 22.9062C82.8319 23.275 82.4135 23.5652 81.9025 23.7737C81.3915 23.9823 80.8326 24.0881 80.2229 24.0881C79.7119 24.0881 79.2188 24.0003 78.7526 23.8251C78.2804 23.6529 77.8649 23.4019 77.5033 23.0785C77.1417 22.7551 76.8488 22.3591 76.6277 21.8846C76.4035 21.41 76.293 20.875 76.293 20.2765C76.293 19.6811 76.4065 19.1521 76.6396 18.6956C76.8698 18.2392 77.1806 17.8553 77.578 17.538C77.9725 17.2236 78.4268 16.9667 78.9378 16.7672C79.4459 16.5678 79.9838 16.4165 80.5427 16.3168C80.9372 16.2352 81.3705 16.1746 81.8397 16.1323C82.3089 16.09 82.7004 16.0538 83.0142 16.0205V15.8452C83.0142 15.1802 82.8469 14.7087 82.5062 14.4245C82.1685 14.1434 81.7023 14.0014 81.1105 14.0014C80.7639 14.0014 80.4321 14.0437 80.1183 14.1284C79.8045 14.21 79.5266 14.3128 79.2785 14.4367C79.0305 14.5637 78.8123 14.6876 78.6211 14.8115C78.4328 14.9354 78.2804 15.0472 78.1638 15.147L77.1537 12.9828C77.2852 12.865 77.4854 12.7259 77.7574 12.5596C78.0293 12.3933 78.3551 12.2301 78.7436 12.0729C79.1291 11.9157 79.5624 11.7828 80.0466 11.6739C80.5307 11.5651 81.0537 11.5107 81.6096 11.5107C82.2671 11.5107 82.8678 11.5985 83.4087 11.7737C83.9496 11.949 84.4189 12.2211 84.8133 12.5959C85.2048 12.9677 85.5127 13.4392 85.7368 14.0135C85.958 14.5848 86.0685 15.277 86.0685 16.0901V23.804H83.2832Z" fill="#565A50"/>
<path id="Vector_7" d="M95.4999 9.94191C95.4013 9.89365 95.21 9.82106 94.9231 9.73025C94.6333 9.63966 94.2537 9.59426 93.7755 9.59426C93.3512 9.59426 92.9925 9.72434 92.7056 9.98117C92.4187 10.2381 92.2753 10.6582 92.2753 11.2386V11.8099H94.8365V14.3005H92.2992V23.8129H89.2449V14.3005H87.6699V11.8099H89.2449V11.163C89.2449 10.3832 89.3435 9.72425 89.5408 9.18319C89.738 8.64516 90.0129 8.20383 90.3656 7.86529C90.7182 7.52373 91.1337 7.27286 91.6088 7.11568C92.087 6.9584 92.604 6.87988 93.1629 6.87988C93.9011 6.87988 94.5107 6.94941 94.9949 7.09154C95.479 7.23368 95.7629 7.32732 95.8436 7.37871L95.4999 9.94191Z" fill="#565A50"/>
<path id="Vector_8" d="M103.824 17.7494C103.824 17.2507 103.764 16.7761 103.651 16.3257C103.537 15.8754 103.364 15.4885 103.134 15.1651C102.904 14.8386 102.626 14.5817 102.297 14.3912C101.968 14.1978 101.583 14.1011 101.14 14.1011C100.698 14.1011 100.31 14.1978 99.9838 14.3912C99.655 14.5816 99.3741 14.8386 99.144 15.1651C98.9169 15.4885 98.7435 15.8754 98.627 16.3257C98.5134 16.7761 98.4566 17.2507 98.4566 17.7494C98.4566 18.2663 98.5134 18.7469 98.627 19.1882C98.7435 19.6295 98.9109 20.0164 99.132 20.3489C99.3532 20.6814 99.6341 20.9444 99.9688 21.1378C100.307 21.3282 100.698 21.425 101.14 21.425C101.583 21.425 101.968 21.3282 102.297 21.1378C102.626 20.9444 102.904 20.6814 103.134 20.3489C103.364 20.0164 103.537 19.6295 103.651 19.1882C103.764 18.7469 103.824 18.2663 103.824 17.7494ZM106.828 17.7626C106.828 18.5455 106.708 19.3132 106.469 20.0689C106.233 20.8245 105.88 21.4986 105.411 22.0971C104.945 22.6956 104.353 23.1762 103.639 23.5419C102.925 23.9077 102.091 24.089 101.14 24.089C100.187 24.089 99.3532 23.9076 98.6419 23.5419C97.9277 23.1762 97.3359 22.6956 96.8667 22.0971C96.4005 21.4986 96.0479 20.8245 95.8088 20.0689C95.5697 19.3132 95.4531 18.5455 95.4531 17.7626C95.4531 16.9827 95.5697 16.221 95.8088 15.4714C96.0479 14.7248 96.4005 14.0568 96.8667 13.4674C97.3359 12.878 97.9277 12.4064 98.6419 12.0497C99.3532 11.6931 100.187 11.5117 101.14 11.5117C102.091 11.5117 102.922 11.6931 103.627 12.0497C104.332 12.4064 104.924 12.878 105.399 13.4674C105.877 14.0568 106.233 14.7248 106.469 15.4714C106.708 16.221 106.828 16.9827 106.828 17.7626Z" fill="#565A50"/>
<path id="Vector_9" d="M116.304 23.8129V16.9666C116.304 16.0537 116.116 15.3464 115.739 14.8477C115.36 14.352 114.837 14.1011 114.161 14.1011C113.686 14.1011 113.247 14.225 112.846 14.4759C112.443 14.7237 112.093 14.9988 111.797 15.298V23.8129H108.746V11.8099H111.528L111.675 12.756C112.153 12.36 112.688 12.0517 113.289 11.8371C113.886 11.6195 114.49 11.5137 115.097 11.5137C115.721 11.5137 116.295 11.6073 116.821 11.7978C117.347 11.9913 117.798 12.2935 118.175 12.7076C118.555 13.1217 118.844 13.6628 119.051 14.3247C119.254 14.9897 119.358 15.7877 119.358 16.7157V23.8129H116.304Z" fill="#565A50"/>
<path id="Vector_10" d="M128.858 16.3678C128.825 15.9536 128.738 15.5909 128.598 15.2856C128.457 14.9773 128.284 14.7294 128.078 14.539C127.872 14.3455 127.651 14.2065 127.411 14.1128C127.169 14.0222 126.927 13.9768 126.679 13.9768C126.15 13.9768 125.648 14.1762 125.17 14.5753C124.692 14.9743 124.411 15.5698 124.327 16.3678H128.858ZM124.255 18.5833C124.321 19.5959 124.632 20.3275 125.194 20.7748C125.753 21.2222 126.479 21.4488 127.367 21.4488C127.779 21.4488 128.168 21.4096 128.529 21.337C128.891 21.2615 129.214 21.1677 129.494 21.0498C129.775 20.9349 130.014 20.8171 130.212 20.7022C130.409 20.5844 130.555 20.4755 130.657 20.3758L131.47 22.8936C131.353 22.9752 131.168 23.0871 130.914 23.2292C130.66 23.3713 130.343 23.5012 129.967 23.6282C129.59 23.7521 129.145 23.8579 128.637 23.9516C128.129 24.0422 127.57 24.0876 126.963 24.0876C126.189 24.0876 125.457 23.9636 124.758 23.7158C124.061 23.4649 123.449 23.078 122.926 22.5551C122.4 22.0322 121.981 21.3823 121.67 20.6025C121.357 19.8226 121.201 18.8916 121.201 17.8125C121.201 16.7999 121.345 15.9022 121.632 15.1224C121.918 14.3425 122.313 13.6866 122.812 13.1546C123.314 12.6256 123.897 12.2175 124.56 11.9334C125.227 11.6523 125.935 11.5103 126.691 11.5103C127.447 11.5103 128.144 11.6373 128.786 11.885C129.426 12.1329 129.979 12.5198 130.448 13.0428C130.914 13.5657 131.285 14.2427 131.554 15.074C131.826 15.9022 131.96 16.8906 131.96 18.0362V18.5833L124.255 18.5833Z" fill="#565A50"/>
</g>
</g>
</svg>
