<svg width="48" height="48" viewBox="0 0 48 48" fill="none" xmlns="http://www.w3.org/2000/svg">
<g clip-path="url(#clip0_1000_2432)">
<circle cx="24" cy="24" r="24" fill="#DACEBC"/>
<g clip-path="url(#clip1_1000_2432)">
<path d="M27.4561 14H20.5426C19.2321 14 18.166 15.0966 18.166 16.4444V31.5556C18.166 32.9034 19.2321 34 20.5426 34H27.4561C28.7666 34 29.8327 32.9034 29.8327 31.5556V16.4444C29.8327 15.0966 28.7666 14 27.4561 14ZM24.8635 32.2222H23.1352C22.7772 32.2222 22.487 31.9237 22.487 31.5556C22.487 31.1874 22.7772 30.8889 23.1352 30.8889H24.8635C25.2215 30.8889 25.5117 31.1874 25.5117 31.5556C25.5117 31.9237 25.2215 32.2222 24.8635 32.2222ZM24.8635 17.1111H23.1352C22.7772 17.1111 22.487 16.8126 22.487 16.4444C22.487 16.0763 22.7772 15.7778 23.1352 15.7778H24.8635C25.2215 15.7778 25.5117 16.0763 25.5117 16.4444C25.5117 16.8126 25.2215 17.1111 24.8635 17.1111Z" fill="#2A2C26"/>
<path d="M33.1498 20.2075C32.9969 19.9224 32.6417 19.8152 32.3565 19.9681C32.0714 20.1211 31.9642 20.4763 32.1171 20.7614V20.7615C32.5757 21.6163 32.8282 22.7663 32.8282 23.9996C32.8282 25.2328 32.5755 26.3832 32.1166 27.2387V27.2388C31.9636 27.5239 32.0708 27.8791 32.356 28.0321H32.356C32.6412 28.185 32.9963 28.0778 33.1493 27.7927C33.6979 26.7698 34.0001 25.4227 34.0001 23.9996C34.0001 22.5764 33.6981 21.2297 33.1498 20.2075Z" fill="#2A2C26"/>
<path d="M15.8835 27.2388C15.4246 26.3832 15.1719 25.2329 15.1719 23.9996C15.1719 22.7663 15.4244 21.6163 15.883 20.7615C16.0359 20.4763 15.9288 20.1211 15.6436 19.9681C15.3584 19.8152 15.0032 19.9224 14.8503 20.2075C14.302 21.2297 14 22.5765 14 23.9996C14 25.4227 14.3021 26.7698 14.8509 27.7927C15.0038 28.0779 15.359 28.1851 15.6441 28.0321C15.9293 27.8792 16.0365 27.524 15.8835 27.2388Z" fill="#2A2C26"/>
</g>
</g>
<defs>
<clipPath id="clip0_1000_2432">
<rect width="48" height="48" fill="white"/>
</clipPath>
<clipPath id="clip1_1000_2432">
<rect width="20" height="20" fill="white" transform="translate(14 14)"/>
</clipPath>
</defs>
</svg>
