<svg width="48" height="48" viewBox="0 0 48 48" fill="none" xmlns="http://www.w3.org/2000/svg">
<g clip-path="url(#clip0_1000_2450)">
<circle cx="24" cy="24" r="24" fill="#DACEBC"/>
<g clip-path="url(#clip1_1000_2450)">
<path d="M26.4862 26.0257C26.21 26.302 25.791 26.3686 25.4437 26.1914C23.869 25.3883 22.6121 24.1315 21.8091 22.5568C21.6319 22.2095 21.6984 21.7906 21.9746 21.5144L22.5856 20.9035L21.311 19.6289L20.2794 20.6607C20.1074 20.8327 20.0471 21.3617 20.4434 22.2862C20.8618 23.2625 21.6441 24.352 22.6463 25.3542C23.6485 26.3564 24.7381 27.1388 25.7142 27.5572C26.6389 27.9533 27.1678 27.8931 27.3398 27.7211L28.3714 26.6895L27.097 25.4149L26.4862 26.0257Z" fill="#2A2C26"/>
<path d="M31.1593 16.8407C29.3273 15.0088 26.8922 14 24.3012 14C24.3011 14 24.3004 14 24.3003 14C23.0189 14.0002 21.7701 14.2483 20.5889 14.7376C19.4076 15.227 18.3492 15.9345 17.443 16.8407C15.6112 18.6725 14.6024 21.1082 14.6024 23.6988C14.6024 25.2437 14.9752 26.7791 15.6815 28.147L14.0513 32.8043C13.9364 33.1328 14.0177 33.4899 14.264 33.736C14.4363 33.9084 14.663 34 14.8962 34C14.9961 34 15.0971 33.9832 15.1957 33.9487L19.853 32.3186C21.2209 33.025 22.7563 33.3977 24.3012 33.3977C26.8918 33.3977 29.3273 32.3888 31.1593 30.557C32.9911 28.7252 34 26.2896 34 23.6989C34 21.1082 32.9912 18.6725 31.1593 16.8407ZM29.2206 27.4987L28.1687 28.5506C27.8524 28.8669 27.4166 29.0255 26.8891 29.0255C26.4117 29.0255 25.8591 28.8956 25.2517 28.6353C24.1416 28.1595 22.9215 27.2889 21.8163 26.1837C20.7111 25.0785 19.8405 23.8584 19.3647 22.7483C18.8167 21.4699 18.8468 20.4339 19.4494 19.8313L20.5013 18.7794C20.9475 18.3332 21.6735 18.3332 22.1197 18.7794L23.4347 20.0944C23.881 20.5405 23.881 21.2665 23.4347 21.7129L22.9467 22.2008C23.6071 23.4125 24.5876 24.3929 25.7993 25.0533L26.2873 24.5653C26.7335 24.119 27.4595 24.119 27.9056 24.5653L29.2206 25.8803C29.4369 26.0964 29.5559 26.3839 29.5559 26.6895C29.5559 26.9951 29.4369 27.2825 29.2206 27.4987Z" fill="#2A2C26"/>
</g>
</g>
<defs>
<clipPath id="clip0_1000_2450">
<rect width="48" height="48" fill="white"/>
</clipPath>
<clipPath id="clip1_1000_2450">
<rect width="20" height="20" fill="white" transform="translate(14 14)"/>
</clipPath>
</defs>
</svg>
